<svg width="1448" height="815" class="overlay">
<style type="text/css">
<![CDATA[
  .node {
    cursor: pointer;
  }

  .overlay{
      background-color:#EEE;
  }

  .nodeCircle {
    fill: #fff;
    stroke: steelblue;
    stroke-width: 1.5px;
  }

  .nodeText {
    font-size:10px;
    font-family:sans-serif;
    max-width: 50px;
    overflow: hidden;
    display: block
  }

  .link {
    fill: none;
    stroke: #aaa;
    stroke-width: 1.5px;
  }

  .templink {
    fill: none;
    stroke: red;
    stroke-width: 3px;
  }

  .ghostCircle.show{
      display:block;
  }

  .ghostCircle, .activeDrag .ghostCircle{
       display: none;
  }
]]>
</style>
<g><path class="link" d="M600,1240.5405405405404C900,1240.5405405405404 900,1167.5675675675675 1200,1167.5675675675675"></path><path class="link" d="M600,1240.5405405405404C900,1240.5405405405404 900,1204.054054054054 1200,1204.054054054054"></path><path class="link" d="M600,1240.5405405405404C900,1240.5405405405404 900,1240.5405405405404 1200,1240.5405405405404"></path><path class="link" d="M600,1240.5405405405404C900,1240.5405405405404 900,1277.0270270270269 1200,1277.0270270270269"></path><path class="link" d="M600,1240.5405405405404C900,1240.5405405405404 900,1313.5135135135133 1200,1313.5135135135133"></path><path class="link" d="M600,1021.6216216216216C900,1021.6216216216216 900,948.6486486486485 1200,948.6486486486485"></path><path class="link" d="M600,1021.6216216216216C900,1021.6216216216216 900,985.1351351351351 1200,985.1351351351351"></path><path class="link" d="M600,1021.6216216216216C900,1021.6216216216216 900,1021.6216216216216 1200,1021.6216216216216"></path><path class="link" d="M600,1021.6216216216216C900,1021.6216216216216 900,1058.1081081081081 1200,1058.1081081081081"></path><path class="link" d="M600,1021.6216216216216C900,1021.6216216216216 900,1094.5945945945946 1200,1094.5945945945946"></path><path class="link" d="M600,583.7837837837837C900,583.7837837837837 900,510.8108108108108 1200,510.8108108108108"></path><path class="link" d="M600,583.7837837837837C900,583.7837837837837 900,547.2972972972973 1200,547.2972972972973"></path><path class="link" d="M600,583.7837837837837C900,583.7837837837837 900,583.7837837837837 1200,583.7837837837837"></path><path class="link" d="M600,583.7837837837837C900,583.7837837837837 900,620.2702702702702 1200,620.2702702702702"></path><path class="link" d="M600,583.7837837837837C900,583.7837837837837 900,656.7567567567567 1200,656.7567567567567"></path><path class="link" d="M1200,437.8378378378378C1500,437.8378378378378 1500,291.8918918918919 1800,291.8918918918919"></path><path class="link" d="M1200,437.8378378378378C1500,437.8378378378378 1500,328.37837837837833 1800,328.37837837837833"></path><path class="link" d="M1200,437.8378378378378C1500,437.8378378378378 1500,364.86486486486484 1800,364.86486486486484"></path><path class="link" d="M1200,437.8378378378378C1500,437.8378378378378 1500,401.35135135135135 1800,401.35135135135135"></path><path class="link" d="M1200,437.8378378378378C1500,437.8378378378378 1500,437.8378378378378 1800,437.8378378378378"></path><path class="link" d="M1200,437.8378378378378C1500,437.8378378378378 1500,474.32432432432427 1800,474.32432432432427"></path><path class="link" d="M1200,437.8378378378378C1500,437.8378378378378 1500,510.8108108108108 1800,510.8108108108108"></path><path class="link" d="M1200,437.8378378378378C1500,437.8378378378378 1500,547.2972972972973 1800,547.2972972972973"></path><path class="link" d="M1200,437.8378378378378C1500,437.8378378378378 1500,583.7837837837837 1800,583.7837837837837"></path><path class="link" d="M600,401.35135135135135C900,401.35135135135135 900,364.86486486486484 1200,364.86486486486484"></path><path class="link" d="M600,401.35135135135135C900,401.35135135135135 900,401.35135135135135 1200,401.35135135135135"></path><path class="link" d="M600,401.35135135135135C900,401.35135135135135 900,437.8378378378378 1200,437.8378378378378"></path><path class="link" d="M1200,839.1891891891892C1500,839.1891891891892 1500,802.7027027027027 1800,802.7027027027027"></path><path class="link" d="M1200,839.1891891891892C1500,839.1891891891892 1500,839.1891891891892 1800,839.1891891891892"></path><path class="link" d="M1200,839.1891891891892C1500,839.1891891891892 1500,875.6756756756756 1800,875.6756756756756"></path><path class="link" d="M600,802.7027027027027C900,802.7027027027027 900,729.7297297297297 1200,729.7297297297297"></path><path class="link" d="M600,802.7027027027027C900,802.7027027027027 900,766.2162162162161 1200,766.2162162162161"></path><path class="link" d="M600,802.7027027027027C900,802.7027027027027 900,802.7027027027027 1200,802.7027027027027"></path><path class="link" d="M600,802.7027027027027C900,802.7027027027027 900,839.1891891891892 1200,839.1891891891892"></path><path class="link" d="M600,802.7027027027027C900,802.7027027027027 900,875.6756756756756 1200,875.6756756756756"></path><path class="link" d="M1200,200.67567567567568C1500,200.67567567567568 1500,182.43243243243242 1800,182.43243243243242"></path><path class="link" d="M1200,200.67567567567568C1500,200.67567567567568 1500,218.9189189189189 1800,218.9189189189189"></path><path class="link" d="M1200,72.97297297297297C1500,72.97297297297297 1500,36.486486486486484 1800,36.486486486486484"></path><path class="link" d="M1200,72.97297297297297C1500,72.97297297297297 1500,72.97297297297297 1800,72.97297297297297"></path><path class="link" d="M1200,72.97297297297297C1500,72.97297297297297 1500,109.45945945945945 1800,109.45945945945945"></path><path class="link" d="M600,173.3108108108108C900,173.3108108108108 900,72.97297297297297 1200,72.97297297297297"></path><path class="link" d="M600,173.3108108108108C900,173.3108108108108 900,200.67567567567568 1200,200.67567567567568"></path><path class="link" d="M600,173.3108108108108C900,173.3108108108108 900,237.16216216216213 1200,237.16216216216213"></path><path class="link" d="M600,173.3108108108108C900,173.3108108108108 900,273.64864864864865 1200,273.64864864864865"></path><path class="link" d="M0,706.9256756756756C300,706.9256756756756 300,173.3108108108108 600,173.3108108108108"></path><path class="link" d="M0,706.9256756756756C300,706.9256756756756 300,401.35135135135135 600,401.35135135135135"></path><path class="link" d="M0,706.9256756756756C300,706.9256756756756 300,583.7837837837837 600,583.7837837837837"></path><path class="link" d="M0,706.9256756756756C300,706.9256756756756 300,656.7567567567567 600,656.7567567567567"></path><path class="link" d="M0,706.9256756756756C300,706.9256756756756 300,729.7297297297297 600,729.7297297297297"></path><path class="link" d="M0,706.9256756756756C300,706.9256756756756 300,802.7027027027027 600,802.7027027027027"></path><path class="link" d="M0,706.9256756756756C300,706.9256756756756 300,912.1621621621621 600,912.1621621621621"></path><path class="link" d="M0,706.9256756756756C300,706.9256756756756 300,1021.6216216216216 600,1021.6216216216216"></path><path class="link" d="M0,706.9256756756756C300,706.9256756756756 300,1240.5405405405404 600,1240.5405405405404"></path><g class="node" transform="translate(1200,1204.0540771484375)"><circle class="nodeCircle" r="4.5" style="fill: rgb(255, 255, 255);"></circle><text x="10" dy=".35em" class="nodeText" text-anchor="start" style="fill-opacity: 1;">Financial help for post 16 education</text></g><g class="node" transform="translate(1200,1240.54052734375)"><circle class="nodeCircle" r="4.5" style="fill: rgb(255, 255, 255);"></circle><text x="10" dy=".35em" class="nodeText" text-anchor="start" style="fill-opacity: 1;">Help with school costs</text></g><g class="node" transform="translate(1200,1167.567626953125)"><circle class="nodeCircle" r="4.5" style="fill: rgb(255, 255, 255);"></circle><text x="10" dy=".35em" class="nodeText" text-anchor="start" style="fill-opacity: 1;">Dealing with problems at school</text></g><g class="node" transform="translate(1200,1277.0269775390625)"><circle class="nodeCircle" r="4.5" style="fill: rgb(255, 255, 255);"></circle><text x="10" dy=".35em" class="nodeText" text-anchor="start" style="fill-opacity: 1;">Home schooling</text></g><g class="node" transform="translate(1200,1313.5135498046875)"><circle class="nodeCircle" r="4.5" style="fill: rgb(255, 255, 255);"></circle><text x="10" dy=".35em" class="nodeText" text-anchor="start" style="fill-opacity: 1;">Sending a child to school</text></g><g class="node" transform="translate(600,1240.54052734375)"><circle class="nodeCircle" r="4.5" style="fill: rgb(255, 255, 255);"></circle><text x="10" dy=".35em" class="nodeText" text-anchor="start" style="fill-opacity: 1;">Schooling and education choices</text></g><g class="node" transform="translate(1200,1094.5946044921875)"><circle class="nodeCircle" r="4.5" style="fill: rgb(255, 255, 255);"></circle><text x="10" dy=".35em" class="nodeText" text-anchor="start" style="fill-opacity: 1;">Serious case reviews</text></g><g class="node" transform="translate(1200,1058.108154296875)"><circle class="nodeCircle" r="4.5" style="fill: rgb(255, 255, 255);"></circle><text x="10" dy=".35em" class="nodeText" text-anchor="start" style="fill-opacity: 1;">Safeguarding inspection</text></g><g class="node" transform="translate(1200,985.1351318359375)"><circle class="nodeCircle" r="4.5" style="fill: rgb(255, 255, 255);"></circle><text x="10" dy=".35em" class="nodeText" text-anchor="start" style="fill-opacity: 1;">Online safety</text></g><g class="node" transform="translate(1200,948.6486206054688)"><circle class="nodeCircle" r="4.5" style="fill: rgb(255, 255, 255);"></circle><text x="10" dy=".35em" class="nodeText" text-anchor="start" style="fill-opacity: 1;">Child abduction and cross-border child protection</text></g><g class="node" transform="translate(1200,1021.6216430664062)"><circle class="nodeCircle" r="4.5" style="fill: rgb(255, 255, 255);"></circle><text x="10" dy=".35em" class="nodeText" text-anchor="start" style="fill-opacity: 1;">Preventing neglect, abuse and exploitation</text></g><g class="node" transform="translate(600,1021.6216430664062)"><circle class="nodeCircle" r="4.5" style="fill: rgb(255, 255, 255);"></circle><text x="10" dy=".35em" class="nodeText" text-anchor="start" style="fill-opacity: 1;">Safeguarding and child protection</text></g><g class="node" transform="translate(600,729.729736328125)"><circle class="nodeCircle" r="4.5" style="fill: rgb(255, 255, 255);"></circle><text x="10" dy=".35em" class="nodeText" text-anchor="start" style="fill-opacity: 1;">Financial help if you have children</text></g><g class="node" transform="translate(600,656.7567749023438)"><circle class="nodeCircle" r="4.5" style="fill: rgb(255, 255, 255);"></circle><text x="10" dy=".35em" class="nodeText" text-anchor="start" style="fill-opacity: 1;">Divorce, separation and legal issues</text></g><g class="node" transform="translate(1200,656.7567749023438)"><circle class="nodeCircle" r="4.5" style="fill: rgb(255, 255, 255);"></circle><text x="10" dy=".35em" class="nodeText" text-anchor="start" style="fill-opacity: 1;">Young carers</text></g><g class="node" transform="translate(1200,510.8108215332031)"><circle class="nodeCircle" r="4.5" style="fill: rgb(255, 255, 255);"></circle><text x="10" dy=".35em" class="nodeText" text-anchor="start" style="fill-opacity: 1;">Child poverty</text></g><g class="node" transform="translate(1200,547.2973022460938)"><circle class="nodeCircle" r="4.5" style="fill: rgb(255, 255, 255);"></circle><text x="10" dy=".35em" class="nodeText" text-anchor="start" style="fill-opacity: 1;">Children's rights</text></g><g class="node" transform="translate(1200,583.7838134765625)"><circle class="nodeCircle" r="4.5" style="fill: rgb(255, 255, 255);"></circle><text x="10" dy=".35em" class="nodeText" text-anchor="start" style="fill-opacity: 1;">Help for children with a long-term illness or disability</text></g><g class="node" transform="translate(1200,620.270263671875)"><circle class="nodeCircle" r="4.5" style="fill: rgb(255, 255, 255);"></circle><text x="10" dy=".35em" class="nodeText" text-anchor="start" style="fill-opacity: 1;">Mental health of children and young people</text></g><g class="node" transform="translate(600,583.7838134765625)"><circle class="nodeCircle" r="4.5" style="fill: rgb(255, 255, 255);"></circle><text x="10" dy=".35em" class="nodeText" text-anchor="start" style="fill-opacity: 1;">Children's health and welfare</text></g><g class="node" transform="translate(1200,364.8648681640625)"><circle class="nodeCircle" r="4.5" style="fill: rgb(255, 255, 255);"></circle><text x="10" dy=".35em" class="nodeText" text-anchor="start" style="fill-opacity: 1;">Childcare for children with special needs, disabilities or disadvantages</text></g><g class="node" transform="translate(1800,291.89190673828125)"><circle class="nodeCircle" r="4.5" style="fill: rgb(255, 255, 255);"></circle><text x="10" dy=".35em" class="nodeText" text-anchor="start" style="fill-opacity: 1;">Admissions and census data for childcare providers</text></g><g class="node" transform="translate(1800,583.7838134765625)"><circle class="nodeCircle" r="4.5" style="fill: rgb(255, 255, 255);"></circle><text x="10" dy=".35em" class="nodeText" text-anchor="start" style="fill-opacity: 1;">Training and professional development for childcare providers</text></g><g class="node" transform="translate(1800,474.3243103027344)"><circle class="nodeCircle" r="4.5" style="fill: rgb(255, 255, 255);"></circle><text x="10" dy=".35em" class="nodeText" text-anchor="start" style="fill-opacity: 1;">Performance and inspection of childcare providers</text></g><g class="node" transform="translate(1800,401.3513488769531)"><circle class="nodeCircle" r="4.5" style="fill: rgb(255, 255, 255);"></circle><text x="10" dy=".35em" class="nodeText" text-anchor="start" style="fill-opacity: 1;">Early years curriculum (0 to 5)</text></g><g class="node" transform="translate(1800,437.83782958984375)"><circle class="nodeCircle" r="4.5" style="fill: rgb(255, 255, 255);"></circle><text x="10" dy=".35em" class="nodeText" text-anchor="start" style="fill-opacity: 1;">Funding and finance for childcare providers</text></g><g class="node" transform="translate(1800,547.2973022460938)"><circle class="nodeCircle" r="4.5" style="fill: rgb(255, 255, 255);"></circle><text x="10" dy=".35em" class="nodeText" text-anchor="start" style="fill-opacity: 1;">Recruiting and managing early years staff</text></g><g class="node" transform="translate(1800,510.8108215332031)"><circle class="nodeCircle" r="4.5" style="fill: rgb(255, 255, 255);"></circle><text x="10" dy=".35em" class="nodeText" text-anchor="start" style="fill-opacity: 1;">Pre-schools and nurseries</text></g><g class="node" transform="translate(1800,364.8648681640625)"><circle class="nodeCircle" r="4.5" style="fill: rgb(255, 255, 255);"></circle><text x="10" dy=".35em" class="nodeText" text-anchor="start" style="fill-opacity: 1;">Children's centres</text></g><g class="node" transform="translate(1800,328.3783874511719)"><circle class="nodeCircle" r="4.5" style="fill: rgb(255, 255, 255);"></circle><text x="10" dy=".35em" class="nodeText" text-anchor="start" style="fill-opacity: 1;">Childminding</text></g><g class="node" transform="translate(1200,437.83782958984375)"><circle class="nodeCircle" r="4.5" style="fill: rgb(255, 255, 255);"></circle><text x="10" dy=".35em" class="nodeText" text-anchor="start" style="fill-opacity: 1;">Running a childcare business</text></g><g class="node" transform="translate(1200,401.3513488769531)"><circle class="nodeCircle" r="4.5" style="fill: rgb(255, 255, 255);"></circle><text x="10" dy=".35em" class="nodeText" text-anchor="start" style="fill-opacity: 1;">Finding and paying for childcare</text></g><g class="node" transform="translate(600,401.3513488769531)"><circle class="nodeCircle" r="4.5" style="fill: rgb(255, 255, 255);"></circle><text x="10" dy=".35em" class="nodeText" text-anchor="start" style="fill-opacity: 1;">Childcare</text></g><g class="node" transform="translate(1200,875.6756591796875)"><circle class="nodeCircle" r="4.5" style="fill: rgb(255, 255, 255);"></circle><text x="10" dy=".35em" class="nodeText" text-anchor="start" style="fill-opacity: 1;">Refugee, runaway and homeless children</text></g><g class="node" transform="translate(1800,839.189208984375)"><circle class="nodeCircle" r="4.5" style="fill: rgb(255, 255, 255);"></circle><text x="10" dy=".35em" class="nodeText" text-anchor="start" style="fill-opacity: 1;">Complaints</text></g><g class="node" transform="translate(1800,875.6756591796875)"><circle class="nodeCircle" r="4.5" style="fill: rgb(255, 255, 255);"></circle><text x="10" dy=".35em" class="nodeText" text-anchor="start" style="fill-opacity: 1;">Inspection of children's social care providers</text></g><g class="node" transform="translate(1800,802.7026977539062)"><circle class="nodeCircle" r="4.5" style="fill: rgb(255, 255, 255);"></circle><text x="10" dy=".35em" class="nodeText" text-anchor="start" style="fill-opacity: 1;">Becoming a children's social care provider</text></g><g class="node" transform="translate(1200,839.189208984375)"><circle class="nodeCircle" r="4.5" style="fill: rgb(255, 255, 255);"></circle><text x="10" dy=".35em" class="nodeText" text-anchor="start" style="fill-opacity: 1;">Children's social care providers</text></g><g class="node" transform="translate(1200,766.2161865234375)"><circle class="nodeCircle" r="4.5" style="fill: rgb(255, 255, 255);"></circle><text x="10" dy=".35em" class="nodeText" text-anchor="start" style="fill-opacity: 1;">Children and young people leaving care</text></g><g class="node" transform="translate(1200,802.7026977539062)"><circle class="nodeCircle" r="4.5" style="fill: rgb(255, 255, 255);"></circle><text x="10" dy=".35em" class="nodeText" text-anchor="start" style="fill-opacity: 1;">Children's homes and other accommodation</text></g><g class="node" transform="translate(1200,729.729736328125)"><circle class="nodeCircle" r="4.5" style="fill: rgb(255, 255, 255);"></circle><text x="10" dy=".35em" class="nodeText" text-anchor="start" style="fill-opacity: 1;">Child and family social workers</text></g><g class="node" transform="translate(600,802.7026977539062)"><circle class="nodeCircle" r="4.5" style="fill: rgb(255, 255, 255);"></circle><text x="10" dy=".35em" class="nodeText" text-anchor="start" style="fill-opacity: 1;">Looked-after children and children in care</text></g><g class="node" transform="translate(1200,237.1621551513672)"><circle class="nodeCircle" r="4.5" style="fill: rgb(255, 255, 255);"></circle><text x="10" dy=".35em" class="nodeText" text-anchor="start" style="fill-opacity: 1;">Special guardianship</text></g><g class="node" transform="translate(1200,273.6486511230469)"><circle class="nodeCircle" r="4.5" style="fill: rgb(255, 255, 255);"></circle><text x="10" dy=".35em" class="nodeText" text-anchor="start" style="fill-opacity: 1;">Surrogacy</text></g><g class="node" transform="translate(1800,218.91891479492188)"><circle class="nodeCircle" r="4.5" style="fill: rgb(255, 255, 255);"></circle><text x="10" dy=".35em" class="nodeText" text-anchor="start" style="fill-opacity: 1;">Fostering services</text></g><g class="node" transform="translate(1800,182.43243408203125)"><circle class="nodeCircle" r="4.5" style="fill: rgb(255, 255, 255);"></circle><text x="10" dy=".35em" class="nodeText" text-anchor="start" style="fill-opacity: 1;">Fostering a child</text></g><g class="node" transform="translate(1200,200.67567443847656)"><circle class="nodeCircle" r="4.5" style="fill: rgb(255, 255, 255);"></circle><text x="10" dy=".35em" class="nodeText" text-anchor="start" style="fill-opacity: 1;">Fostering</text></g><g class="node" transform="translate(1800,109.45945739746094)"><circle class="nodeCircle" r="4.5" style="fill: rgb(255, 255, 255);"></circle><text x="10" dy=".35em" class="nodeText" text-anchor="start" style="fill-opacity: 1;">Intercountry adoption</text></g><g class="node" transform="translate(1800,72.97297668457031)"><circle class="nodeCircle" r="4.5" style="fill: rgb(255, 255, 255);"></circle><text x="10" dy=".35em" class="nodeText" text-anchor="start" style="fill-opacity: 1;">Adoption agencies</text></g><g class="node" transform="translate(1800,36.486488342285156)"><circle class="nodeCircle" r="4.5" style="fill: rgb(255, 255, 255);"></circle><text x="10" dy=".35em" class="nodeText" text-anchor="start" style="fill-opacity: 1;">Adopting a child</text></g><g class="node" transform="translate(1200,72.97297668457031)"><circle class="nodeCircle" r="4.5" style="fill: rgb(255, 255, 255);"></circle><text x="10" dy=".35em" class="nodeText" text-anchor="start" style="fill-opacity: 1;">Adoption</text></g><g class="node" transform="translate(600,173.31080627441406)"><circle class="nodeCircle" r="4.5" style="fill: rgb(255, 255, 255);"></circle><text x="10" dy=".35em" class="nodeText" text-anchor="start" style="fill-opacity: 1;">Adoption, fostering and surrogacy</text></g><g class="node" transform="translate(600,912.1621704101562)"><circle class="nodeCircle" r="4.5" style="fill: rgb(255, 255, 255);"></circle><text x="10" dy=".35em" class="nodeText" text-anchor="start" style="fill-opacity: 1;">Pregnancy and birth</text></g><g class="node" transform="translate(0,706.9256591796875)"><circle class="nodeCircle" r="4.5" style="fill: rgb(255, 255, 255);"></circle><text x="10" dy=".35em" class="nodeText" text-anchor="start" style="fill-opacity: 1;">Parenting, childcare and children's services</text></g></g>

</svg>
