<svg width="1448" height="815" class="overlay">
  <style type="text/css">
<![CDATA[
  	.node {
      cursor: pointer;
    }

    .overlay{
        background-color:#EEE;
    }

    .nodeCircle {
      fill: #fff;
      stroke: steelblue;
      stroke-width: 1.5px;
    }

    .nodeText {
      font-size:10px;
      font-family:sans-serif;
      max-width: 50px;
      overflow: hidden;
      display: block
    }

    .link {
      fill: none;
      stroke: #aaa;
      stroke-width: 1.5px;
    }

    .templink {
      fill: none;
      stroke: red;
      stroke-width: 3px;
    }

    .ghostCircle.show{
        display:block;
    }

    .ghostCircle, .activeDrag .ghostCircle{
         display: none;
    }
]]>
  </style>
<g transform="translate(90,154.22827002483865)scale(0.1)"><path class="link" d="M1200,869.5652173913043C1800,869.5652173913043 1800,834.7826086956521 2400,834.7826086956521"></path><path class="link" d="M1200,869.5652173913043C1800,869.5652173913043 1800,869.5652173913043 2400,869.5652173913043"></path><path class="link" d="M1200,869.5652173913043C1800,869.5652173913043 1800,904.3478260869565 2400,904.3478260869565"></path><path class="link" d="M1200,173.91304347826087C1800,173.91304347826087 1800,139.1304347826087 2400,139.1304347826087"></path><path class="link" d="M1200,173.91304347826087C1800,173.91304347826087 1800,173.91304347826087 2400,173.91304347826087"></path><path class="link" d="M1200,173.91304347826087C1800,173.91304347826087 1800,208.69565217391303 2400,208.69565217391303"></path><path class="link" d="M2400,486.9565217391304C3000,486.9565217391304 3000,452.17391304347825 3600,452.17391304347825"></path><path class="link" d="M2400,486.9565217391304C3000,486.9565217391304 3000,486.9565217391304 3600,486.9565217391304"></path><path class="link" d="M2400,486.9565217391304C3000,486.9565217391304 3000,521.7391304347826 3600,521.7391304347826"></path><path class="link" d="M2400,313.04347826086956C3000,313.04347826086956 3000,243.4782608695652 3600,243.4782608695652"></path><path class="link" d="M2400,313.04347826086956C3000,313.04347826086956 3000,278.2608695652174 3600,278.2608695652174"></path><path class="link" d="M2400,313.04347826086956C3000,313.04347826086956 3000,313.04347826086956 3600,313.04347826086956"></path><path class="link" d="M2400,313.04347826086956C3000,313.04347826086956 3000,347.82608695652175 3600,347.82608695652175"></path><path class="link" d="M2400,313.04347826086956C3000,313.04347826086956 3000,382.6086956521739 3600,382.6086956521739"></path><path class="link" d="M1200,417.39130434782606C1800,417.39130434782606 1800,278.2608695652174 2400,278.2608695652174"></path><path class="link" d="M1200,417.39130434782606C1800,417.39130434782606 1800,313.04347826086956 2400,313.04347826086956"></path><path class="link" d="M1200,417.39130434782606C1800,417.39130434782606 1800,347.82608695652175 2400,347.82608695652175"></path><path class="link" d="M1200,417.39130434782606C1800,417.39130434782606 1800,382.6086956521739 2400,382.6086956521739"></path><path class="link" d="M1200,417.39130434782606C1800,417.39130434782606 1800,417.39130434782606 2400,417.39130434782606"></path><path class="link" d="M1200,417.39130434782606C1800,417.39130434782606 1800,452.17391304347825 2400,452.17391304347825"></path><path class="link" d="M1200,417.39130434782606C1800,417.39130434782606 1800,486.9565217391304 2400,486.9565217391304"></path><path class="link" d="M1200,417.39130434782606C1800,417.39130434782606 1800,521.7391304347826 2400,521.7391304347826"></path><path class="link" d="M1200,417.39130434782606C1800,417.39130434782606 1800,556.5217391304348 2400,556.5217391304348"></path><path class="link" d="M1200,52.17391304347826C1800,52.17391304347826 1800,34.78260869565217 2400,34.78260869565217"></path><path class="link" d="M1200,52.17391304347826C1800,52.17391304347826 1800,69.56521739130434 2400,69.56521739130434"></path><path class="link" d="M2400,2295.6521739130435C3000,2295.6521739130435 3000,2226.086956521739 3600,2226.086956521739"></path><path class="link" d="M2400,2295.6521739130435C3000,2295.6521739130435 3000,2260.869565217391 3600,2260.869565217391"></path><path class="link" d="M2400,2295.6521739130435C3000,2295.6521739130435 3000,2295.6521739130435 3600,2295.6521739130435"></path><path class="link" d="M2400,2295.6521739130435C3000,2295.6521739130435 3000,2330.4347826086955 3600,2330.4347826086955"></path><path class="link" d="M2400,2295.6521739130435C3000,2295.6521739130435 3000,2365.2173913043475 3600,2365.2173913043475"></path><path class="link" d="M1200,2278.2608695652175C1800,2278.2608695652175 1800,2226.086956521739 2400,2226.086956521739"></path><path class="link" d="M1200,2278.2608695652175C1800,2278.2608695652175 1800,2260.869565217391 2400,2260.869565217391"></path><path class="link" d="M1200,2278.2608695652175C1800,2278.2608695652175 1800,2295.6521739130435 2400,2295.6521739130435"></path><path class="link" d="M1200,2278.2608695652175C1800,2278.2608695652175 1800,2330.4347826086955 2400,2330.4347826086955"></path><path class="link" d="M1200,2086.9565217391305C1800,2086.9565217391305 1800,2017.391304347826 2400,2017.391304347826"></path><path class="link" d="M1200,2086.9565217391305C1800,2086.9565217391305 1800,2052.173913043478 2400,2052.173913043478"></path><path class="link" d="M1200,2086.9565217391305C1800,2086.9565217391305 1800,2086.9565217391305 2400,2086.9565217391305"></path><path class="link" d="M1200,2086.9565217391305C1800,2086.9565217391305 1800,2121.7391304347825 2400,2121.7391304347825"></path><path class="link" d="M1200,2086.9565217391305C1800,2086.9565217391305 1800,2156.5217391304345 2400,2156.5217391304345"></path><path class="link" d="M1200,695.6521739130435C1800,695.6521739130435 1800,626.0869565217391 2400,626.0869565217391"></path><path class="link" d="M1200,695.6521739130435C1800,695.6521739130435 1800,660.8695652173913 2400,660.8695652173913"></path><path class="link" d="M1200,695.6521739130435C1800,695.6521739130435 1800,695.6521739130435 2400,695.6521739130435"></path><path class="link" d="M1200,695.6521739130435C1800,695.6521739130435 1800,730.4347826086956 2400,730.4347826086956"></path><path class="link" d="M1200,695.6521739130435C1800,695.6521739130435 1800,765.2173913043478 2400,765.2173913043478"></path><path class="link" d="M2400,1008.695652173913C3000,1008.695652173913 3000,886.9565217391304 3600,886.9565217391304"></path><path class="link" d="M2400,1008.695652173913C3000,1008.695652173913 3000,921.7391304347825 3600,921.7391304347825"></path><path class="link" d="M2400,1008.695652173913C3000,1008.695652173913 3000,956.5217391304348 3600,956.5217391304348"></path><path class="link" d="M2400,1008.695652173913C3000,1008.695652173913 3000,991.3043478260869 3600,991.3043478260869"></path><path class="link" d="M2400,1008.695652173913C3000,1008.695652173913 3000,1026.086956521739 3600,1026.086956521739"></path><path class="link" d="M2400,1008.695652173913C3000,1008.695652173913 3000,1060.8695652173913 3600,1060.8695652173913"></path><path class="link" d="M2400,1008.695652173913C3000,1008.695652173913 3000,1095.6521739130435 3600,1095.6521739130435"></path><path class="link" d="M2400,1008.695652173913C3000,1008.695652173913 3000,1130.4347826086955 3600,1130.4347826086955"></path><path class="link" d="M1200,1130.4347826086955C1800,1130.4347826086955 1800,973.9130434782608 2400,973.9130434782608"></path><path class="link" d="M1200,1130.4347826086955C1800,1130.4347826086955 1800,1008.695652173913 2400,1008.695652173913"></path><path class="link" d="M1200,1130.4347826086955C1800,1130.4347826086955 1800,1043.4782608695652 2400,1043.4782608695652"></path><path class="link" d="M1200,1130.4347826086955C1800,1130.4347826086955 1800,1078.2608695652173 2400,1078.2608695652173"></path><path class="link" d="M1200,1130.4347826086955C1800,1130.4347826086955 1800,1113.0434782608695 2400,1113.0434782608695"></path><path class="link" d="M1200,1130.4347826086955C1800,1130.4347826086955 1800,1147.8260869565217 2400,1147.8260869565217"></path><path class="link" d="M1200,1130.4347826086955C1800,1130.4347826086955 1800,1182.6086956521738 2400,1182.6086956521738"></path><path class="link" d="M1200,1130.4347826086955C1800,1130.4347826086955 1800,1217.391304347826 2400,1217.391304347826"></path><path class="link" d="M1200,1130.4347826086955C1800,1130.4347826086955 1800,1252.1739130434783 2400,1252.1739130434783"></path><path class="link" d="M1200,1130.4347826086955C1800,1130.4347826086955 1800,1286.9565217391303 2400,1286.9565217391303"></path><path class="link" d="M2400,1913.0434782608695C3000,1913.0434782608695 3000,1878.2608695652173 3600,1878.2608695652173"></path><path class="link" d="M2400,1913.0434782608695C3000,1913.0434782608695 3000,1913.0434782608695 3600,1913.0434782608695"></path><path class="link" d="M2400,1913.0434782608695C3000,1913.0434782608695 3000,1947.8260869565215 3600,1947.8260869565215"></path><path class="link" d="M2400,1721.7391304347825C3000,1721.7391304347825 3000,1634.782608695652 3600,1634.782608695652"></path><path class="link" d="M2400,1721.7391304347825C3000,1721.7391304347825 3000,1669.5652173913043 3600,1669.5652173913043"></path><path class="link" d="M2400,1721.7391304347825C3000,1721.7391304347825 3000,1704.3478260869565 3600,1704.3478260869565"></path><path class="link" d="M2400,1721.7391304347825C3000,1721.7391304347825 3000,1739.1304347826085 3600,1739.1304347826085"></path><path class="link" d="M2400,1721.7391304347825C3000,1721.7391304347825 3000,1773.9130434782608 3600,1773.9130434782608"></path><path class="link" d="M2400,1721.7391304347825C3000,1721.7391304347825 3000,1808.695652173913 3600,1808.695652173913"></path><path class="link" d="M2400,1460.8695652173913C3000,1460.8695652173913 3000,1356.5217391304348 3600,1356.5217391304348"></path><path class="link" d="M2400,1460.8695652173913C3000,1460.8695652173913 3000,1391.304347826087 3600,1391.304347826087"></path><path class="link" d="M2400,1460.8695652173913C3000,1460.8695652173913 3000,1426.086956521739 3600,1426.086956521739"></path><path class="link" d="M2400,1460.8695652173913C3000,1460.8695652173913 3000,1460.8695652173913 3600,1460.8695652173913"></path><path class="link" d="M2400,1460.8695652173913C3000,1460.8695652173913 3000,1495.6521739130435 3600,1495.6521739130435"></path><path class="link" d="M2400,1460.8695652173913C3000,1460.8695652173913 3000,1530.4347826086955 3600,1530.4347826086955"></path><path class="link" d="M2400,1460.8695652173913C3000,1460.8695652173913 3000,1565.2173913043478 3600,1565.2173913043478"></path><path class="link" d="M1200,1652.1739130434783C1800,1652.1739130434783 1800,1356.5217391304348 2400,1356.5217391304348"></path><path class="link" d="M1200,1652.1739130434783C1800,1652.1739130434783 1800,1391.304347826087 2400,1391.304347826087"></path><path class="link" d="M1200,1652.1739130434783C1800,1652.1739130434783 1800,1426.086956521739 2400,1426.086956521739"></path><path class="link" d="M1200,1652.1739130434783C1800,1652.1739130434783 1800,1460.8695652173913 2400,1460.8695652173913"></path><path class="link" d="M1200,1652.1739130434783C1800,1652.1739130434783 1800,1721.7391304347825 2400,1721.7391304347825"></path><path class="link" d="M1200,1652.1739130434783C1800,1652.1739130434783 1800,1913.0434782608695 2400,1913.0434782608695"></path><path class="link" d="M1200,1652.1739130434783C1800,1652.1739130434783 1800,1947.8260869565215 2400,1947.8260869565215"></path><path class="link" d="M0,1165.2173913043478C600,1165.2173913043478 600,52.17391304347826 1200,52.17391304347826"></path><path class="link" d="M0,1165.2173913043478C600,1165.2173913043478 600,113.04347826086956 1200,113.04347826086956"></path><path class="link" d="M0,1165.2173913043478C600,1165.2173913043478 600,173.91304347826087 1200,173.91304347826087"></path><path class="link" d="M0,1165.2173913043478C600,1165.2173913043478 600,417.39130434782606 1200,417.39130434782606"></path><path class="link" d="M0,1165.2173913043478C600,1165.2173913043478 600,695.6521739130435 1200,695.6521739130435"></path><path class="link" d="M0,1165.2173913043478C600,1165.2173913043478 600,869.5652173913043 1200,869.5652173913043"></path><path class="link" d="M0,1165.2173913043478C600,1165.2173913043478 600,1130.4347826086955 1200,1130.4347826086955"></path><path class="link" d="M0,1165.2173913043478C600,1165.2173913043478 600,1652.1739130434783 1200,1652.1739130434783"></path><path class="link" d="M0,1165.2173913043478C600,1165.2173913043478 600,2086.9565217391305 1200,2086.9565217391305"></path><path class="link" d="M0,1165.2173913043478C600,1165.2173913043478 600,2182.608695652174 1200,2182.608695652174"></path><path class="link" d="M0,1165.2173913043478C600,1165.2173913043478 600,2278.2608695652175 1200,2278.2608695652175"></path><g class="node" transform="translate(1200,2182.608642578125)"><circle class="nodeCircle" r="4.5" style="fill: rgb(255, 255, 255);"></circle><text x="10" dy=".35em" class="nodeText" text-anchor="start" style="fill-opacity: 1;">Support for education work in other countries</text></g><g class="node" transform="translate(1200,113.0434799194336)"><circle class="nodeCircle" r="4.5" style="fill: rgb(255, 255, 255);"></circle><text x="10" dy=".35em" class="nodeText" text-anchor="start" style="fill-opacity: 1;">Education of disadvantaged children</text></g><g class="node" transform="translate(2400,904.3478393554688)"><circle class="nodeCircle" r="4.5" style="fill: rgb(255, 255, 255);"></circle><text x="10" dy=".35em" class="nodeText" text-anchor="start" style="fill-opacity: 1;">Special educational needs and disability (SEND) support in schools</text></g><g class="node" transform="translate(2400,834.7825927734375)"><circle class="nodeCircle" r="4.5" style="fill: rgb(255, 255, 255);"></circle><text x="10" dy=".35em" class="nodeText" text-anchor="start" style="fill-opacity: 1;">Funding for special educational needs and disability (SEND)</text></g><g class="node" transform="translate(2400,869.5652465820312)"><circle class="nodeCircle" r="4.5" style="fill: rgb(255, 255, 255);"></circle><text x="10" dy=".35em" class="nodeText" text-anchor="start" style="fill-opacity: 1;">Special educational needs and disability (SEND) code of practice</text></g><g class="node" transform="translate(1200,869.5652465820312)"><circle class="nodeCircle" r="4.5" style="fill: rgb(255, 255, 255);"></circle><text x="10" dy=".35em" class="nodeText" text-anchor="start" style="fill-opacity: 1;">Pupils and students with special educational needs and disability (SEND)</text></g><g class="node" transform="translate(2400,139.13043212890625)"><circle class="nodeCircle" r="4.5" style="fill: rgb(255, 255, 255);"></circle><text x="10" dy=".35em" class="nodeText" text-anchor="start" style="fill-opacity: 1;">Financial help for international students in the UK</text></g><g class="node" transform="translate(2400,173.9130401611328)"><circle class="nodeCircle" r="4.5" style="fill: rgb(255, 255, 255);"></circle><text x="10" dy=".35em" class="nodeText" text-anchor="start" style="fill-opacity: 1;">Financial help for students who are parents or carers</text></g><g class="node" transform="translate(2400,208.69564819335938)"><circle class="nodeCircle" r="4.5" style="fill: rgb(255, 255, 255);"></circle><text x="10" dy=".35em" class="nodeText" text-anchor="start" style="fill-opacity: 1;">Student loans and sponsorship</text></g><g class="node" transform="translate(1200,173.9130401611328)"><circle class="nodeCircle" r="4.5" style="fill: rgb(255, 255, 255);"></circle><text x="10" dy=".35em" class="nodeText" text-anchor="start" style="fill-opacity: 1;">Funding and finance for students</text></g><g class="node" transform="translate(2400,382.60870361328125)"><circle class="nodeCircle" r="4.5" style="fill: rgb(255, 255, 255);"></circle><text x="10" dy=".35em" class="nodeText" text-anchor="start" style="fill-opacity: 1;">Education in prisons</text></g><g class="node" transform="translate(2400,278.2608642578125)"><circle class="nodeCircle" r="4.5" style="fill: rgb(255, 255, 255);"></circle><text x="10" dy=".35em" class="nodeText" text-anchor="start" style="fill-opacity: 1;">Adult and community learning</text></g><g class="node" transform="translate(2400,417.39129638671875)"><circle class="nodeCircle" r="4.5" style="fill: rgb(255, 255, 255);"></circle><text x="10" dy=".35em" class="nodeText" text-anchor="start" style="fill-opacity: 1;">Funding and finance for further or higher education providers</text></g><g class="node" transform="translate(2400,556.521728515625)"><circle class="nodeCircle" r="4.5" style="fill: rgb(255, 255, 255);"></circle><text x="10" dy=".35em" class="nodeText" text-anchor="start" style="fill-opacity: 1;">Running a further or higher education institution</text></g><g class="node" transform="translate(3600,521.7391357421875)"><circle class="nodeCircle" r="4.5" style="fill: rgb(255, 255, 255);"></circle><text x="10" dy=".35em" class="nodeText" text-anchor="start" style="fill-opacity: 1;">Ofsted inspection reports and ratings</text></g><g class="node" transform="translate(3600,486.9565124511719)"><circle class="nodeCircle" r="4.5" style="fill: rgb(255, 255, 255);"></circle><text x="10" dy=".35em" class="nodeText" text-anchor="start" style="fill-opacity: 1;">Inspection of residential provision in further education colleges</text></g><g class="node" transform="translate(3600,452.1739196777344)"><circle class="nodeCircle" r="4.5" style="fill: rgb(255, 255, 255);"></circle><text x="10" dy=".35em" class="nodeText" text-anchor="start" style="fill-opacity: 1;">Inspection of further education and skills providers</text></g><g class="node" transform="translate(2400,486.9565124511719)"><circle class="nodeCircle" r="4.5" style="fill: rgb(255, 255, 255);"></circle><text x="10" dy=".35em" class="nodeText" text-anchor="start" style="fill-opacity: 1;">Inspection and performance of further education providers</text></g><g class="node" transform="translate(2400,452.1739196777344)"><circle class="nodeCircle" r="4.5" style="fill: rgb(255, 255, 255);"></circle><text x="10" dy=".35em" class="nodeText" text-anchor="start" style="fill-opacity: 1;">Further and higher education courses and qualifications</text></g><g class="node" transform="translate(2400,521.7391357421875)"><circle class="nodeCircle" r="4.5" style="fill: rgb(255, 255, 255);"></circle><text x="10" dy=".35em" class="nodeText" text-anchor="start" style="fill-opacity: 1;">Learning Records Service (LRS)</text></g><g class="node" transform="translate(2400,347.8260803222656)"><circle class="nodeCircle" r="4.5" style="fill: rgb(255, 255, 255);"></circle><text x="10" dy=".35em" class="nodeText" text-anchor="start" style="fill-opacity: 1;">Careers guidance in further and higher education</text></g><g class="node" transform="translate(3600,278.2608642578125)"><circle class="nodeCircle" r="4.5" style="fill: rgb(255, 255, 255);"></circle><text x="10" dy=".35em" class="nodeText" text-anchor="start" style="fill-opacity: 1;">Employers and training organisations</text></g><g class="node" transform="translate(3600,313.0434875488281)"><circle class="nodeCircle" r="4.5" style="fill: rgb(255, 255, 255);"></circle><text x="10" dy=".35em" class="nodeText" text-anchor="start" style="fill-opacity: 1;">Internships</text></g><g class="node" transform="translate(3600,347.8260803222656)"><circle class="nodeCircle" r="4.5" style="fill: rgb(255, 255, 255);"></circle><text x="10" dy=".35em" class="nodeText" text-anchor="start" style="fill-opacity: 1;">Traineeships</text></g><g class="node" transform="translate(3600,243.47825622558594)"><circle class="nodeCircle" r="4.5" style="fill: rgb(255, 255, 255);"></circle><text x="10" dy=".35em" class="nodeText" text-anchor="start" style="fill-opacity: 1;">Being an apprentice</text></g><g class="node" transform="translate(3600,382.60870361328125)"><circle class="nodeCircle" r="4.5" style="fill: rgb(255, 255, 255);"></circle><text x="10" dy=".35em" class="nodeText" text-anchor="start" style="fill-opacity: 1;">Types of apprenticeships</text></g><g class="node" transform="translate(2400,313.0434875488281)"><circle class="nodeCircle" r="4.5" style="fill: rgb(255, 255, 255);"></circle><text x="10" dy=".35em" class="nodeText" text-anchor="start" style="fill-opacity: 1;">Apprenticeships, traineeships and internships</text></g><g class="node" transform="translate(1200,417.39129638671875)"><circle class="nodeCircle" r="4.5" style="fill: rgb(255, 255, 255);"></circle><text x="10" dy=".35em" class="nodeText" text-anchor="start" style="fill-opacity: 1;">Further and higher education, skills and vocational training</text></g><g class="node" transform="translate(2400,34.78260803222656)"><circle class="nodeCircle" r="4.5" style="fill: rgb(255, 255, 255);"></circle><text x="10" dy=".35em" class="nodeText" text-anchor="start" style="fill-opacity: 1;">Alternative provision and pupil referral units</text></g><g class="node" transform="translate(2400,69.56521606445312)"><circle class="nodeCircle" r="4.5" style="fill: rgb(255, 255, 255);"></circle><text x="10" dy=".35em" class="nodeText" text-anchor="start" style="fill-opacity: 1;">Home schooling</text></g><g class="node" transform="translate(1200,52.173912048339844)"><circle class="nodeCircle" r="4.5" style="fill: rgb(255, 255, 255);"></circle><text x="10" dy=".35em" class="nodeText" text-anchor="start" style="fill-opacity: 1;">Alternatives to school</text></g><g class="node" transform="translate(3600,2260.86962890625)"><circle class="nodeCircle" r="4.5" style="fill: rgb(255, 255, 255);"></circle><text x="10" dy=".35em" class="nodeText" text-anchor="start" style="fill-opacity: 1;">National Professional Qualification for Headship (NPQH)</text></g><g class="node" transform="translate(3600,2365.21728515625)"><circle class="nodeCircle" r="4.5" style="fill: rgb(255, 255, 255);"></circle><text x="10" dy=".35em" class="nodeText" text-anchor="start" style="fill-opacity: 1;">Subject Knowledge Enhancement (SKE)</text></g><g class="node" transform="translate(3600,2295.652099609375)"><circle class="nodeCircle" r="4.5" style="fill: rgb(255, 255, 255);"></circle><text x="10" dy=".35em" class="nodeText" text-anchor="start" style="fill-opacity: 1;">Qualified Teacher Status (QTS)</text></g><g class="node" transform="translate(3600,2226.0869140625)"><circle class="nodeCircle" r="4.5" style="fill: rgb(255, 255, 255);"></circle><text x="10" dy=".35em" class="nodeText" text-anchor="start" style="fill-opacity: 1;">Initial Teacher Training (ITT)</text></g><g class="node" transform="translate(3600,2330.434814453125)"><circle class="nodeCircle" r="4.5" style="fill: rgb(255, 255, 255);"></circle><text x="10" dy=".35em" class="nodeText" text-anchor="start" style="fill-opacity: 1;">School leadership</text></g><g class="node" transform="translate(2400,2295.652099609375)"><circle class="nodeCircle" r="4.5" style="fill: rgb(255, 255, 255);"></circle><text x="10" dy=".35em" class="nodeText" text-anchor="start" style="fill-opacity: 1;">Teacher training and professional development</text></g><g class="node" transform="translate(2400,2226.0869140625)"><circle class="nodeCircle" r="4.5" style="fill: rgb(255, 255, 255);"></circle><text x="10" dy=".35em" class="nodeText" text-anchor="start" style="fill-opacity: 1;">Teacher pay, pensions and conditions</text></g><g class="node" transform="translate(2400,2260.86962890625)"><circle class="nodeCircle" r="4.5" style="fill: rgb(255, 255, 255);"></circle><text x="10" dy=".35em" class="nodeText" text-anchor="start" style="fill-opacity: 1;">Teacher records</text></g><g class="node" transform="translate(2400,2330.434814453125)"><circle class="nodeCircle" r="4.5" style="fill: rgb(255, 255, 255);"></circle><text x="10" dy=".35em" class="nodeText" text-anchor="start" style="fill-opacity: 1;">Teaching standards, conduct and practice</text></g><g class="node" transform="translate(1200,2278.260986328125)"><circle class="nodeCircle" r="4.5" style="fill: rgb(255, 255, 255);"></circle><text x="10" dy=".35em" class="nodeText" text-anchor="start" style="fill-opacity: 1;">Teaching and leadership</text></g><g class="node" transform="translate(2400,2156.521728515625)"><circle class="nodeCircle" r="4.5" style="fill: rgb(255, 255, 255);"></circle><text x="10" dy=".35em" class="nodeText" text-anchor="start" style="fill-opacity: 1;">Ofsted inspection reports and ratings</text></g><g class="node" transform="translate(2400,2052.173828125)"><circle class="nodeCircle" r="4.5" style="fill: rgb(255, 255, 255);"></circle><text x="10" dy=".35em" class="nodeText" text-anchor="start" style="fill-opacity: 1;">Inspection of British schools overseas</text></g><g class="node" transform="translate(2400,2017.391357421875)"><circle class="nodeCircle" r="4.5" style="fill: rgb(255, 255, 255);"></circle><text x="10" dy=".35em" class="nodeText" text-anchor="start" style="fill-opacity: 1;">inspection of boarding and residential schools</text></g><g class="node" transform="translate(2400,2086.95654296875)"><circle class="nodeCircle" r="4.5" style="fill: rgb(255, 255, 255);"></circle><text x="10" dy=".35em" class="nodeText" text-anchor="start" style="fill-opacity: 1;">Inspection of independent schools</text></g><g class="node" transform="translate(2400,2121.739013671875)"><circle class="nodeCircle" r="4.5" style="fill: rgb(255, 255, 255);"></circle><text x="10" dy=".35em" class="nodeText" text-anchor="start" style="fill-opacity: 1;">Inspection of maintained schools and academies</text></g><g class="node" transform="translate(1200,2086.95654296875)"><circle class="nodeCircle" r="4.5" style="fill: rgb(255, 255, 255);"></circle><text x="10" dy=".35em" class="nodeText" text-anchor="start" style="fill-opacity: 1;">School inspections and performance</text></g><g class="node" transform="translate(2400,765.2174072265625)"><circle class="nodeCircle" r="4.5" style="fill: rgb(255, 255, 255);"></circle><text x="10" dy=".35em" class="nodeText" text-anchor="start" style="fill-opacity: 1;">School discipline and exclusions</text></g><g class="node" transform="translate(2400,730.4347534179688)"><circle class="nodeCircle" r="4.5" style="fill: rgb(255, 255, 255);"></circle><text x="10" dy=".35em" class="nodeText" text-anchor="start" style="fill-opacity: 1;">School bullying</text></g><g class="node" transform="translate(2400,695.6521606445312)"><circle class="nodeCircle" r="4.5" style="fill: rgb(255, 255, 255);"></circle><text x="10" dy=".35em" class="nodeText" text-anchor="start" style="fill-opacity: 1;">School attendance and absence</text></g><g class="node" transform="translate(2400,660.8695678710938)"><circle class="nodeCircle" r="4.5" style="fill: rgb(255, 255, 255);"></circle><text x="10" dy=".35em" class="nodeText" text-anchor="start" style="fill-opacity: 1;">Safeguarding pupils</text></g><g class="node" transform="translate(2400,626.0869750976562)"><circle class="nodeCircle" r="4.5" style="fill: rgb(255, 255, 255);"></circle><text x="10" dy=".35em" class="nodeText" text-anchor="start" style="fill-opacity: 1;">Health and safety in schools</text></g><g class="node" transform="translate(1200,695.6521606445312)"><circle class="nodeCircle" r="4.5" style="fill: rgb(255, 255, 255);"></circle><text x="10" dy=".35em" class="nodeText" text-anchor="start" style="fill-opacity: 1;">Pupil wellbeing, behaviour and attendance</text></g><g class="node" transform="translate(2400,1182.608642578125)"><circle class="nodeCircle" r="4.5" style="fill: rgb(255, 255, 255);"></circle><text x="10" dy=".35em" class="nodeText" text-anchor="start" style="fill-opacity: 1;">School complaints and whistleblowing</text></g><g class="node" transform="translate(2400,973.9130249023438)"><circle class="nodeCircle" r="4.5" style="fill: rgb(255, 255, 255);"></circle><text x="10" dy=".35em" class="nodeText" text-anchor="start" style="fill-opacity: 1;">Careers guidance in schools</text></g><g class="node" transform="translate(2400,1252.1739501953125)"><circle class="nodeCircle" r="4.5" style="fill: rgb(255, 255, 255);"></circle><text x="10" dy=".35em" class="nodeText" text-anchor="start" style="fill-opacity: 1;">School meals, transport and uniform</text></g><g class="node" transform="translate(2400,1078.2608642578125)"><circle class="nodeCircle" r="4.5" style="fill: rgb(255, 255, 255);"></circle><text x="10" dy=".35em" class="nodeText" text-anchor="start" style="fill-opacity: 1;">Recruiting and managing school staff</text></g><g class="node" transform="translate(2400,1147.8260498046875)"><circle class="nodeCircle" r="4.5" style="fill: rgb(255, 255, 255);"></circle><text x="10" dy=".35em" class="nodeText" text-anchor="start" style="fill-opacity: 1;">School buildings and premises</text></g><g class="node" transform="translate(2400,1217.391357421875)"><circle class="nodeCircle" r="4.5" style="fill: rgb(255, 255, 255);"></circle><text x="10" dy=".35em" class="nodeText" text-anchor="start" style="fill-opacity: 1;">School governance</text></g><g class="node" transform="translate(2400,1043.478271484375)"><circle class="nodeCircle" r="4.5" style="fill: rgb(255, 255, 255);"></circle><text x="10" dy=".35em" class="nodeText" text-anchor="start" style="fill-opacity: 1;">Managing school data</text></g><g class="node" transform="translate(3600,956.521728515625)"><circle class="nodeCircle" r="4.5" style="fill: rgb(255, 255, 255);"></circle><text x="10" dy=".35em" class="nodeText" text-anchor="start" style="fill-opacity: 1;">Funding for 16 to 19 year olds</text></g><g class="node" transform="translate(3600,1130.434814453125)"><circle class="nodeCircle" r="4.5" style="fill: rgb(255, 255, 255);"></circle><text x="10" dy=".35em" class="nodeText" text-anchor="start" style="fill-opacity: 1;">Schools forums</text></g><g class="node" transform="translate(3600,1060.8695068359375)"><circle class="nodeCircle" r="4.5" style="fill: rgb(255, 255, 255);"></circle><text x="10" dy=".35em" class="nodeText" text-anchor="start" style="fill-opacity: 1;">Pupil Premium</text></g><g class="node" transform="translate(3600,991.3043212890625)"><circle class="nodeCircle" r="4.5" style="fill: rgb(255, 255, 255);"></circle><text x="10" dy=".35em" class="nodeText" text-anchor="start" style="fill-opacity: 1;">Maintained school and local authority funding</text></g><g class="node" transform="translate(3600,886.95654296875)"><circle class="nodeCircle" r="4.5" style="fill: rgb(255, 255, 255);"></circle><text x="10" dy=".35em" class="nodeText" text-anchor="start" style="fill-opacity: 1;">Academy financial management and reporting</text></g><g class="node" transform="translate(3600,921.7391357421875)"><circle class="nodeCircle" r="4.5" style="fill: rgb(255, 255, 255);"></circle><text x="10" dy=".35em" class="nodeText" text-anchor="start" style="fill-opacity: 1;">Academy funding and compliance</text></g><g class="node" transform="translate(3600,1095.6522216796875)"><circle class="nodeCircle" r="4.5" style="fill: rgb(255, 255, 255);"></circle><text x="10" dy=".35em" class="nodeText" text-anchor="start" style="fill-opacity: 1;">School insurance and risk management</text></g><g class="node" transform="translate(3600,1026.0869140625)"><circle class="nodeCircle" r="4.5" style="fill: rgb(255, 255, 255);"></circle><text x="10" dy=".35em" class="nodeText" text-anchor="start" style="fill-opacity: 1;">Procurement for schools</text></g><g class="node" transform="translate(2400,1008.6956787109375)"><circle class="nodeCircle" r="4.5" style="fill: rgb(255, 255, 255);"></circle><text x="10" dy=".35em" class="nodeText" text-anchor="start" style="fill-opacity: 1;">Funding and finance for schools and academies</text></g><g class="node" transform="translate(2400,1286.95654296875)"><circle class="nodeCircle" r="4.5" style="fill: rgb(255, 255, 255);"></circle><text x="10" dy=".35em" class="nodeText" text-anchor="start" style="fill-opacity: 1;">Setting up or changing the status of a school</text></g><g class="node" transform="translate(2400,1113.04345703125)"><circle class="nodeCircle" r="4.5" style="fill: rgb(255, 255, 255);"></circle><text x="10" dy=".35em" class="nodeText" text-anchor="start" style="fill-opacity: 1;">School admissions</text></g><g class="node" transform="translate(1200,1130.434814453125)"><circle class="nodeCircle" r="4.5" style="fill: rgb(255, 255, 255);"></circle><text x="10" dy=".35em" class="nodeText" text-anchor="start" style="fill-opacity: 1;">Running and managing a school</text></g><g class="node" transform="translate(2400,1426.0869140625)"><circle class="nodeCircle" r="4.5" style="fill: rgb(255, 255, 255);"></circle><text x="10" dy=".35em" class="nodeText" text-anchor="start" style="fill-opacity: 1;">Personal, social, health and economic education</text></g><g class="node" transform="translate(2400,1947.8260498046875)"><circle class="nodeCircle" r="4.5" style="fill: rgb(255, 255, 255);"></circle><text x="10" dy=".35em" class="nodeText" text-anchor="start" style="fill-opacity: 1;">Spiritual, moral, social and cultural development</text></g><g class="node" transform="translate(2400,1391.3043212890625)"><circle class="nodeCircle" r="4.5" style="fill: rgb(255, 255, 255);"></circle><text x="10" dy=".35em" class="nodeText" text-anchor="start" style="fill-opacity: 1;">Key stage 5 (AS and A Levels)</text></g><g class="node" transform="translate(3600,1878.2608642578125)"><circle class="nodeCircle" r="4.5" style="fill: rgb(255, 255, 255);"></circle><text x="10" dy=".35em" class="nodeText" text-anchor="start" style="fill-opacity: 1;">GCSE changes and reforms</text></g><g class="node" transform="translate(3600,1947.8260498046875)"><circle class="nodeCircle" r="4.5" style="fill: rgb(255, 255, 255);"></circle><text x="10" dy=".35em" class="nodeText" text-anchor="start" style="fill-opacity: 1;">Key stage 3 and 4 exam marking, qualifications and results</text></g><g class="node" transform="translate(3600,1913.04345703125)"><circle class="nodeCircle" r="4.5" style="fill: rgb(255, 255, 255);"></circle><text x="10" dy=".35em" class="nodeText" text-anchor="start" style="fill-opacity: 1;">GCSE subject content and requirements</text></g><g class="node" transform="translate(2400,1913.04345703125)"><circle class="nodeCircle" r="4.5" style="fill: rgb(255, 255, 255);"></circle><text x="10" dy=".35em" class="nodeText" text-anchor="start" style="fill-opacity: 1;">Secondary curriculum, key stage 3 and key stage 4 (GCSEs)</text></g><g class="node" transform="translate(3600,1808.6956787109375)"><circle class="nodeCircle" r="4.5" style="fill: rgb(255, 255, 255);"></circle><text x="10" dy=".35em" class="nodeText" text-anchor="start" style="fill-opacity: 1;">Tests (key stage 2)</text></g><g class="node" transform="translate(3600,1773.9130859375)"><circle class="nodeCircle" r="4.5" style="fill: rgb(255, 255, 255);"></circle><text x="10" dy=".35em" class="nodeText" text-anchor="start" style="fill-opacity: 1;">Science (key stage 2)</text></g><g class="node" transform="translate(3600,1739.1304931640625)"><circle class="nodeCircle" r="4.5" style="fill: rgb(255, 255, 255);"></circle><text x="10" dy=".35em" class="nodeText" text-anchor="start" style="fill-opacity: 1;">Programmes of study (key stage 2)</text></g><g class="node" transform="translate(3600,1704.3477783203125)"><circle class="nodeCircle" r="4.5" style="fill: rgb(255, 255, 255);"></circle><text x="10" dy=".35em" class="nodeText" text-anchor="start" style="fill-opacity: 1;">Maths (key stage 2)</text></g><g class="node" transform="translate(3600,1669.565185546875)"><circle class="nodeCircle" r="4.5" style="fill: rgb(255, 255, 255);"></circle><text x="10" dy=".35em" class="nodeText" text-anchor="start" style="fill-opacity: 1;">English  (key stage 2)</text></g><g class="node" transform="translate(3600,1634.7825927734375)"><circle class="nodeCircle" r="4.5" style="fill: rgb(255, 255, 255);"></circle><text x="10" dy=".35em" class="nodeText" text-anchor="start" style="fill-opacity: 1;">Assessments  (key stage 2)</text></g><g class="node" transform="translate(2400,1721.7391357421875)"><circle class="nodeCircle" r="4.5" style="fill: rgb(255, 255, 255);"></circle><text x="10" dy=".35em" class="nodeText" text-anchor="start" style="fill-opacity: 1;">Primary curriculum, key stage 2</text></g><g class="node" transform="translate(3600,1565.2174072265625)"><circle class="nodeCircle" r="4.5" style="fill: rgb(255, 255, 255);"></circle><text x="10" dy=".35em" class="nodeText" text-anchor="start" style="fill-opacity: 1;">Tests (key stage 1)</text></g><g class="node" transform="translate(3600,1530.434814453125)"><circle class="nodeCircle" r="4.5" style="fill: rgb(255, 255, 255);"></circle><text x="10" dy=".35em" class="nodeText" text-anchor="start" style="fill-opacity: 1;">Science (key stage 1)</text></g><g class="node" transform="translate(3600,1495.6522216796875)"><circle class="nodeCircle" r="4.5" style="fill: rgb(255, 255, 255);"></circle><text x="10" dy=".35em" class="nodeText" text-anchor="start" style="fill-opacity: 1;">Programmes of study  (key stage 1)</text></g><g class="node" transform="translate(3600,1460.8695068359375)"><circle class="nodeCircle" r="4.5" style="fill: rgb(255, 255, 255);"></circle><text x="10" dy=".35em" class="nodeText" text-anchor="start" style="fill-opacity: 1;">Phonics</text></g><g class="node" transform="translate(3600,1426.0869140625)"><circle class="nodeCircle" r="4.5" style="fill: rgb(255, 255, 255);"></circle><text x="10" dy=".35em" class="nodeText" text-anchor="start" style="fill-opacity: 1;">Maths (key stage 1)</text></g><g class="node" transform="translate(3600,1391.3043212890625)"><circle class="nodeCircle" r="4.5" style="fill: rgb(255, 255, 255);"></circle><text x="10" dy=".35em" class="nodeText" text-anchor="start" style="fill-opacity: 1;">English  (key stage 1)</text></g><g class="node" transform="translate(3600,1356.521728515625)"><circle class="nodeCircle" r="4.5" style="fill: rgb(255, 255, 255);"></circle><text x="10" dy=".35em" class="nodeText" text-anchor="start" style="fill-opacity: 1;">Assessments (key stage 1)</text></g><g class="node" transform="translate(2400,1460.8695068359375)"><circle class="nodeCircle" r="4.5" style="fill: rgb(255, 255, 255);"></circle><text x="10" dy=".35em" class="nodeText" text-anchor="start" style="fill-opacity: 1;">Primary curriculum, key stage 1</text></g><g class="node" transform="translate(2400,1356.521728515625)"><circle class="nodeCircle" r="4.5" style="fill: rgb(255, 255, 255);"></circle><text x="10" dy=".35em" class="nodeText" text-anchor="start" style="fill-opacity: 1;">Early years curriculum</text></g><g class="node" transform="translate(1200,1652.1739501953125)"><circle class="nodeCircle" r="4.5" style="fill: rgb(255, 255, 255);"></circle><text x="10" dy=".35em" class="nodeText" text-anchor="start" style="fill-opacity: 1;">School curriculum</text></g><g class="node" transform="translate(0,1165.2174072265625)"><circle class="nodeCircle" r="4.5" style="fill: rgb(255, 255, 255);"></circle><text x="10" dy=".35em" class="nodeText" text-anchor="start" style="fill-opacity: 1;">Education, training and skills</text></g></g></svg>
