<svg width="1448" height="815" class="overlay">
  <style type="text/css">
<![CDATA[
  	.node {
      cursor: pointer;
    }

    .overlay{
        background-color:#EEE;
    }

    .nodeCircle {
      fill: #fff;
      stroke: steelblue;
      stroke-width: 1.5px;
    }

    .nodeText {
      font-size:12px;
      font-family:sans-serif;
      max-width: 50px;
      overflow: hidden;
      display: block
    }

    .link {
      fill: none;
      stroke: #aaa;
      stroke-width: 1.5px;
    }

    .templink {
      fill: none;
      stroke: red;
      stroke-width: 3px;
    }

    .ghostCircle.show{
        display:block;
    }

    .ghostCircle, .activeDrag .ghostCircle{
         display: none;
    }
]]>
  </style>
  <g transform="translate(-119.95083456451596,-308.0520495118327)scale(0.6470728272414276)"><path class="link" d="M1000,2021.25748502994C1250,2021.25748502994 1250,2008.3832335329341 1500,2008.3832335329341"></path><path class="link" d="M1000,2021.25748502994C1250,2021.25748502994 1250,2034.131736526946 1500,2034.131736526946"></path><path class="link" d="M500,2008.3832335329341C750,2008.3832335329341 750,1969.7604790419161 1000,1969.7604790419161"></path><path class="link" d="M500,2008.3832335329341C750,2008.3832335329341 750,1995.508982035928 1000,1995.508982035928"></path><path class="link" d="M500,2008.3832335329341C750,2008.3832335329341 750,2021.25748502994 1000,2021.25748502994"></path><path class="link" d="M500,2008.3832335329341C750,2008.3832335329341 750,2047.005988023952 1000,2047.005988023952"></path><path class="link" d="M500,218.8622754491018C750,218.8622754491018 750,180.23952095808383 1000,180.23952095808383"></path><path class="link" d="M500,218.8622754491018C750,218.8622754491018 750,205.9880239520958 1000,205.9880239520958"></path><path class="link" d="M500,218.8622754491018C750,218.8622754491018 750,231.73652694610777 1000,231.73652694610777"></path><path class="link" d="M500,218.8622754491018C750,218.8622754491018 750,257.4850299401198 1000,257.4850299401198"></path><path class="link" d="M500,2111.377245508982C750,2111.377245508982 750,2098.502994011976 1000,2098.502994011976"></path><path class="link" d="M500,2111.377245508982C750,2111.377245508982 750,2124.251497005988 1000,2124.251497005988"></path><path class="link" d="M1000,308.9820359281437C1250,308.9820359281437 1250,308.9820359281437 1500,308.9820359281437"></path><path class="link" d="M500,347.60479041916165C750,347.60479041916165 750,308.9820359281437 1000,308.9820359281437"></path><path class="link" d="M500,347.60479041916165C750,347.60479041916165 750,334.7305389221557 1000,334.7305389221557"></path><path class="link" d="M500,347.60479041916165C750,347.60479041916165 750,360.47904191616766 1000,360.47904191616766"></path><path class="link" d="M500,347.60479041916165C750,347.60479041916165 750,386.22754491017963 1000,386.22754491017963"></path><path class="link" d="M1000,102.9940119760479C1250,102.9940119760479 1250,77.24550898203593 1500,77.24550898203593"></path><path class="link" d="M1000,102.9940119760479C1250,102.9940119760479 1250,102.9940119760479 1500,102.9940119760479"></path><path class="link" d="M1000,102.9940119760479C1250,102.9940119760479 1250,128.7425149700599 1500,128.7425149700599"></path><path class="link" d="M500,102.9940119760479C750,102.9940119760479 750,77.24550898203593 1000,77.24550898203593"></path><path class="link" d="M500,102.9940119760479C750,102.9940119760479 750,102.9940119760479 1000,102.9940119760479"></path><path class="link" d="M500,102.9940119760479C750,102.9940119760479 750,128.7425149700599 1000,128.7425149700599"></path><path class="link" d="M500,25.748502994011975C750,25.748502994011975 750,25.748502994011975 1000,25.748502994011975"></path><path class="link" d="M1000,437.7245508982036C1250,437.7245508982036 1250,424.8502994011976 1500,424.8502994011976"></path><path class="link" d="M1000,437.7245508982036C1250,437.7245508982036 1250,450.5988023952096 1500,450.5988023952096"></path><path class="link" d="M1500,862.5748502994012C1750,862.5748502994012 1750,849.7005988023952 2000,849.7005988023952"></path><path class="link" d="M1500,862.5748502994012C1750,862.5748502994012 1750,875.4491017964071 2000,875.4491017964071"></path><path class="link" d="M1000,862.5748502994012C1250,862.5748502994012 1250,862.5748502994012 1500,862.5748502994012"></path><path class="link" d="M1000,1738.0239520958082C1250,1738.0239520958082 1250,1712.2754491017963 1500,1712.2754491017963"></path><path class="link" d="M1000,1738.0239520958082C1250,1738.0239520958082 1250,1738.0239520958082 1500,1738.0239520958082"></path><path class="link" d="M1000,1738.0239520958082C1250,1738.0239520958082 1250,1763.7724550898204 1500,1763.7724550898204"></path><path class="link" d="M1000,914.0718562874251C1250,914.0718562874251 1250,914.0718562874251 1500,914.0718562874251"></path><path class="link" d="M1000,1017.065868263473C1250,1017.065868263473 1250,965.5688622754491 1500,965.5688622754491"></path><path class="link" d="M1000,1017.065868263473C1250,1017.065868263473 1250,991.317365269461 1500,991.317365269461"></path><path class="link" d="M1000,1017.065868263473C1250,1017.065868263473 1250,1017.065868263473 1500,1017.065868263473"></path><path class="link" d="M1000,1017.065868263473C1250,1017.065868263473 1250,1042.814371257485 1500,1042.814371257485"></path><path class="link" d="M1000,1017.065868263473C1250,1017.065868263473 1250,1068.562874251497 1500,1068.562874251497"></path><path class="link" d="M1000,502.09580838323353C1250,502.09580838323353 1250,502.09580838323353 1500,502.09580838323353"></path><path class="link" d="M1500,1931.1377245508982C1750,1931.1377245508982 1750,1892.5149700598802 2000,1892.5149700598802"></path><path class="link" d="M1500,1931.1377245508982C1750,1931.1377245508982 1750,1918.263473053892 2000,1918.263473053892"></path><path class="link" d="M1500,1931.1377245508982C1750,1931.1377245508982 1750,1944.0119760479042 2000,1944.0119760479042"></path><path class="link" d="M1500,1931.1377245508982C1750,1931.1377245508982 1750,1969.7604790419161 2000,1969.7604790419161"></path><path class="link" d="M1500,1841.017964071856C1750,1841.017964071856 1750,1841.017964071856 2000,1841.017964071856"></path><path class="link" d="M1000,1886.0778443113772C1250,1886.0778443113772 1250,1815.2694610778442 1500,1815.2694610778442"></path><path class="link" d="M1000,1886.0778443113772C1250,1886.0778443113772 1250,1841.017964071856 1500,1841.017964071856"></path><path class="link" d="M1000,1886.0778443113772C1250,1886.0778443113772 1250,1886.0778443113772 1500,1886.0778443113772"></path><path class="link" d="M1000,1886.0778443113772C1250,1886.0778443113772 1250,1931.1377245508982 1500,1931.1377245508982"></path><path class="link" d="M1000,1886.0778443113772C1250,1886.0778443113772 1250,1956.88622754491 1500,1956.88622754491"></path><path class="link" d="M1500,733.8323353293413C1750,733.8323353293413 1750,720.9580838323353 2000,720.9580838323353"></path><path class="link" d="M1500,733.8323353293413C1750,733.8323353293413 1750,746.7065868263472 2000,746.7065868263472"></path><path class="link" d="M1000,682.3353293413173C1250,682.3353293413173 1250,553.5928143712574 1500,553.5928143712574"></path><path class="link" d="M1000,682.3353293413173C1250,682.3353293413173 1250,579.3413173652694 1500,579.3413173652694"></path><path class="link" d="M1000,682.3353293413173C1250,682.3353293413173 1250,605.0898203592814 1500,605.0898203592814"></path><path class="link" d="M1000,682.3353293413173C1250,682.3353293413173 1250,630.8383233532934 1500,630.8383233532934"></path><path class="link" d="M1000,682.3353293413173C1250,682.3353293413173 1250,656.5868263473054 1500,656.5868263473054"></path><path class="link" d="M1000,682.3353293413173C1250,682.3353293413173 1250,682.3353293413173 1500,682.3353293413173"></path><path class="link" d="M1000,682.3353293413173C1250,682.3353293413173 1250,708.0838323353294 1500,708.0838323353294"></path><path class="link" d="M1000,682.3353293413173C1250,682.3353293413173 1250,733.8323353293413 1500,733.8323353293413"></path><path class="link" d="M1000,682.3353293413173C1250,682.3353293413173 1250,759.5808383233533 1500,759.5808383233533"></path><path class="link" d="M1000,682.3353293413173C1250,682.3353293413173 1250,785.3293413173652 1500,785.3293413173652"></path><path class="link" d="M1000,682.3353293413173C1250,682.3353293413173 1250,811.0778443113772 1500,811.0778443113772"></path><path class="link" d="M1500,1171.556886227545C1750,1171.556886227545 1750,1171.556886227545 2000,1171.556886227545"></path><path class="link" d="M1500,1660.7784431137725C1750,1660.7784431137725 1750,1635.0299401197603 2000,1635.0299401197603"></path><path class="link" d="M1500,1660.7784431137725C1750,1660.7784431137725 1750,1660.7784431137725 2000,1660.7784431137725"></path><path class="link" d="M1500,1660.7784431137725C1750,1660.7784431137725 1750,1686.5269461077844 2000,1686.5269461077844"></path><path class="link" d="M1500,1506.2874251497005C1750,1506.2874251497005 1750,1429.0419161676646 2000,1429.0419161676646"></path><path class="link" d="M1500,1506.2874251497005C1750,1506.2874251497005 1750,1454.7904191616767 2000,1454.7904191616767"></path><path class="link" d="M1500,1506.2874251497005C1750,1506.2874251497005 1750,1480.5389221556886 2000,1480.5389221556886"></path><path class="link" d="M1500,1506.2874251497005C1750,1506.2874251497005 1750,1506.2874251497005 2000,1506.2874251497005"></path><path class="link" d="M1500,1506.2874251497005C1750,1506.2874251497005 1750,1532.0359281437125 2000,1532.0359281437125"></path><path class="link" d="M1500,1506.2874251497005C1750,1506.2874251497005 1750,1557.7844311377246 2000,1557.7844311377246"></path><path class="link" d="M1500,1506.2874251497005C1750,1506.2874251497005 1750,1583.5329341317365 2000,1583.5329341317365"></path><path class="link" d="M1500,1300.2994011976048C1750,1300.2994011976048 1750,1223.0538922155688 2000,1223.0538922155688"></path><path class="link" d="M1500,1300.2994011976048C1750,1300.2994011976048 1750,1248.8023952095807 2000,1248.8023952095807"></path><path class="link" d="M1500,1300.2994011976048C1750,1300.2994011976048 1750,1274.5508982035929 2000,1274.5508982035929"></path><path class="link" d="M1500,1300.2994011976048C1750,1300.2994011976048 1750,1300.2994011976048 2000,1300.2994011976048"></path><path class="link" d="M1500,1300.2994011976048C1750,1300.2994011976048 1750,1326.0479041916167 2000,1326.0479041916167"></path><path class="link" d="M1500,1300.2994011976048C1750,1300.2994011976048 1750,1351.7964071856286 2000,1351.7964071856286"></path><path class="link" d="M1500,1300.2994011976048C1750,1300.2994011976048 1750,1377.5449101796407 2000,1377.5449101796407"></path><path class="link" d="M1000,1390.4191616766466C1250,1390.4191616766466 1250,1120.059880239521 1500,1120.059880239521"></path><path class="link" d="M1000,1390.4191616766466C1250,1390.4191616766466 1250,1145.8083832335328 1500,1145.8083832335328"></path><path class="link" d="M1000,1390.4191616766466C1250,1390.4191616766466 1250,1171.556886227545 1500,1171.556886227545"></path><path class="link" d="M1000,1390.4191616766466C1250,1390.4191616766466 1250,1235.9281437125749 1500,1235.9281437125749"></path><path class="link" d="M1000,1390.4191616766466C1250,1390.4191616766466 1250,1300.2994011976048 1500,1300.2994011976048"></path><path class="link" d="M1000,1390.4191616766466C1250,1390.4191616766466 1250,1506.2874251497005 1500,1506.2874251497005"></path><path class="link" d="M1000,1390.4191616766466C1250,1390.4191616766466 1250,1583.5329341317365 1500,1583.5329341317365"></path><path class="link" d="M1000,1390.4191616766466C1250,1390.4191616766466 1250,1660.7784431137725 1500,1660.7784431137725"></path><path class="link" d="M500,1161.9011976047905C750,1161.9011976047905 750,437.7245508982036 1000,437.7245508982036"></path><path class="link" d="M500,1161.9011976047905C750,1161.9011976047905 750,469.9101796407185 1000,469.9101796407185"></path><path class="link" d="M500,1161.9011976047905C750,1161.9011976047905 750,502.09580838323353 1000,502.09580838323353"></path><path class="link" d="M500,1161.9011976047905C750,1161.9011976047905 750,682.3353293413173 1000,682.3353293413173"></path><path class="link" d="M500,1161.9011976047905C750,1161.9011976047905 750,862.5748502994012 1000,862.5748502994012"></path><path class="link" d="M500,1161.9011976047905C750,1161.9011976047905 750,914.0718562874251 1000,914.0718562874251"></path><path class="link" d="M500,1161.9011976047905C750,1161.9011976047905 750,1017.065868263473 1000,1017.065868263473"></path><path class="link" d="M500,1161.9011976047905C750,1161.9011976047905 750,1390.4191616766466 1000,1390.4191616766466"></path><path class="link" d="M500,1161.9011976047905C750,1161.9011976047905 750,1506.2874251497005 1000,1506.2874251497005"></path><path class="link" d="M500,1161.9011976047905C750,1161.9011976047905 750,1622.1556886227545 1000,1622.1556886227545"></path><path class="link" d="M500,1161.9011976047905C750,1161.9011976047905 750,1738.0239520958082 1000,1738.0239520958082"></path><path class="link" d="M500,1161.9011976047905C750,1161.9011976047905 750,1886.0778443113772 1000,1886.0778443113772"></path><path class="link" d="M0,1068.562874251497C250,1068.562874251497 250,25.748502994011975 500,25.748502994011975"></path><path class="link" d="M0,1068.562874251497C250,1068.562874251497 250,102.9940119760479 500,102.9940119760479"></path><path class="link" d="M0,1068.562874251497C250,1068.562874251497 250,218.8622754491018 500,218.8622754491018"></path><path class="link" d="M0,1068.562874251497C250,1068.562874251497 250,347.60479041916165 500,347.60479041916165"></path><path class="link" d="M0,1068.562874251497C250,1068.562874251497 250,1161.9011976047905 500,1161.9011976047905"></path><path class="link" d="M0,1068.562874251497C250,1068.562874251497 250,2008.3832335329341 500,2008.3832335329341"></path><path class="link" d="M0,1068.562874251497C250,1068.562874251497 250,2059.880239520958 500,2059.880239520958"></path><path class="link" d="M0,1068.562874251497C250,1068.562874251497 250,2111.377245508982 500,2111.377245508982"></path><g class="node" transform="translate(500,2059.880126953125)"><circle class="nodeCircle" r="4.5" style="fill: rgb(255, 255, 255);"></circle><text x="10" dy=".35em" class="nodeText" text-anchor="start" style="fill-opacity: 1;">Support for education work in other countries</text></g><g class="node" transform="translate(1000,1995.509033203125)"><circle class="nodeCircle" r="4.5" style="fill: rgb(255, 255, 255);"></circle><text x="10" dy=".35em" class="nodeText" text-anchor="start" style="fill-opacity: 1;">Funding for special educational needs and disability</text></g><g class="node" transform="translate(1000,2047.0059814453125)"><circle class="nodeCircle" r="4.5" style="fill: rgb(255, 255, 255);"></circle><text x="10" dy=".35em" class="nodeText" text-anchor="start" style="fill-opacity: 1;">Vulnerable and disadvantaged pupils</text></g><g class="node" transform="translate(1500,2034.1317138671875)"><circle class="nodeCircle" r="4.5" style="fill: rgb(255, 255, 255);"></circle><text x="10" dy=".35em" class="nodeText" text-anchor="start" style="fill-opacity: 1;">SEND code of practice</text></g><g class="node" transform="translate(1500,2008.3831787109375)"><circle class="nodeCircle" r="4.5" style="fill: rgb(255, 255, 255);"></circle><text x="10" dy=".35em" class="nodeText" text-anchor="start" style="fill-opacity: 1;">Assessing pupils with special educational needs</text></g><g class="node" transform="translate(1000,2021.2574462890625)"><circle class="nodeCircle" r="4.5" style="fill: rgb(255, 255, 255);"></circle><text x="10" dy=".35em" class="nodeText" text-anchor="start" style="fill-opacity: 1;">Special educational needs and disability support in schools</text></g><g class="node" transform="translate(1000,1969.760498046875)"><circle class="nodeCircle" r="4.5" style="fill: rgb(255, 255, 255);"></circle><text x="10" dy=".35em" class="nodeText" text-anchor="start" style="fill-opacity: 1;">Able, gifted and talented pupils</text></g><g class="node" transform="translate(500,2008.3831787109375)"><circle class="nodeCircle" r="4.5" style="fill: rgb(255, 255, 255);"></circle><text x="10" dy=".35em" class="nodeText" text-anchor="start" style="fill-opacity: 1;">Students with special needs, disabilities or disadvantages</text></g><g class="node" transform="translate(1000,180.23951721191406)"><circle class="nodeCircle" r="4.5" style="fill: rgb(255, 255, 255);"></circle><text x="10" dy=".35em" class="nodeText" text-anchor="start" style="fill-opacity: 1;">Financial help for international students in the UK</text></g><g class="node" transform="translate(1000,205.98802185058594)"><circle class="nodeCircle" r="4.5" style="fill: rgb(255, 255, 255);"></circle><text x="10" dy=".35em" class="nodeText" text-anchor="start" style="fill-opacity: 1;">Financial help for students who are parents</text></g><g class="node" transform="translate(1000,257.4850158691406)"><circle class="nodeCircle" r="4.5" style="fill: rgb(255, 255, 255);"></circle><text x="10" dy=".35em" class="nodeText" text-anchor="start" style="fill-opacity: 1;">Student sponsorship</text></g><g class="node" transform="translate(1000,231.7365264892578)"><circle class="nodeCircle" r="4.5" style="fill: rgb(255, 255, 255);"></circle><text x="10" dy=".35em" class="nodeText" text-anchor="start" style="fill-opacity: 1;">Student loans</text></g><g class="node" transform="translate(500,218.86227416992188)"><circle class="nodeCircle" r="4.5" style="fill: rgb(255, 255, 255);"></circle><text x="10" dy=".35em" class="nodeText" text-anchor="start" style="fill-opacity: 1;">Funding and finance for students</text></g><g class="node" transform="translate(1000,2098.5029296875)"><circle class="nodeCircle" r="4.5" style="fill: rgb(255, 255, 255);"></circle><text x="10" dy=".35em" class="nodeText" text-anchor="start" style="fill-opacity: 1;">Governance and management for higher education institutions</text></g><g class="node" transform="translate(1000,2124.25146484375)"><circle class="nodeCircle" r="4.5" style="fill: rgb(255, 255, 255);"></circle><text x="10" dy=".35em" class="nodeText" text-anchor="start" style="fill-opacity: 1;">Higher education courses and qualifications</text></g><g class="node" transform="translate(500,2111.377197265625)"><circle class="nodeCircle" r="4.5" style="fill: rgb(255, 255, 255);"></circle><text x="10" dy=".35em" class="nodeText" text-anchor="start" style="fill-opacity: 1;">University and higher education</text></g><g class="node" transform="translate(1000,386.2275390625)"><circle class="nodeCircle" r="4.5" style="fill: rgb(255, 255, 255);"></circle><text x="10" dy=".35em" class="nodeText" text-anchor="start" style="fill-opacity: 1;">Inspection and performance of further education providers</text></g><g class="node" transform="translate(1000,360.4790344238281)"><circle class="nodeCircle" r="4.5" style="fill: rgb(255, 255, 255);"></circle><text x="10" dy=".35em" class="nodeText" text-anchor="start" style="fill-opacity: 1;">Further education, courses and qualifications</text></g><g class="node" transform="translate(1000,334.73052978515625)"><circle class="nodeCircle" r="4.5" style="fill: rgb(255, 255, 255);"></circle><text x="10" dy=".35em" class="nodeText" text-anchor="start" style="fill-opacity: 1;">Apprenticeships, traineeships and internships</text></g><g class="node" transform="translate(1500,308.9820251464844)"><circle class="nodeCircle" r="4.5" style="fill: rgb(255, 255, 255);"></circle><text x="10" dy=".35em" class="nodeText" text-anchor="start" style="fill-opacity: 1;">Basic skills education</text></g><g class="node" transform="translate(1000,308.9820251464844)"><circle class="nodeCircle" r="4.5" style="fill: rgb(255, 255, 255);"></circle><text x="10" dy=".35em" class="nodeText" text-anchor="start" style="fill-opacity: 1;">Adult and community learning</text></g><g class="node" transform="translate(500,347.60479736328125)"><circle class="nodeCircle" r="4.5" style="fill: rgb(255, 255, 255);"></circle><text x="10" dy=".35em" class="nodeText" text-anchor="start" style="fill-opacity: 1;">Further education, skills and vocational training</text></g><g class="node" transform="translate(1000,128.7425079345703)"><circle class="nodeCircle" r="4.5" style="fill: rgb(255, 255, 255);"></circle><text x="10" dy=".35em" class="nodeText" text-anchor="start" style="fill-opacity: 1;">Funding for special educational needs and disability support</text></g><g class="node" transform="translate(1000,77.2455062866211)"><circle class="nodeCircle" r="4.5" style="fill: rgb(255, 255, 255);"></circle><text x="10" dy=".35em" class="nodeText" text-anchor="start" style="fill-opacity: 1;">Funding and finance for further education providers</text></g><g class="node" transform="translate(1500,128.7425079345703)"><circle class="nodeCircle" r="4.5" style="fill: rgb(255, 255, 255);"></circle><text x="10" dy=".35em" class="nodeText" text-anchor="start" style="fill-opacity: 1;">Schools forums</text></g><g class="node" transform="translate(1500,102.99401092529297)"><circle class="nodeCircle" r="4.5" style="fill: rgb(255, 255, 255);"></circle><text x="10" dy=".35em" class="nodeText" text-anchor="start" style="fill-opacity: 1;">Pupil premium</text></g><g class="node" transform="translate(1500,77.2455062866211)"><circle class="nodeCircle" r="4.5" style="fill: rgb(255, 255, 255);"></circle><text x="10" dy=".35em" class="nodeText" text-anchor="start" style="fill-opacity: 1;">16 to 19 funding</text></g><g class="node" transform="translate(1000,102.99401092529297)"><circle class="nodeCircle" r="4.5" style="fill: rgb(255, 255, 255);"></circle><text x="10" dy=".35em" class="nodeText" text-anchor="start" style="fill-opacity: 1;">Funding and finance for schools</text></g><g class="node" transform="translate(500,102.99401092529297)"><circle class="nodeCircle" r="4.5" style="fill: rgb(255, 255, 255);"></circle><text x="10" dy=".35em" class="nodeText" text-anchor="start" style="fill-opacity: 1;">Funding and finance for education providers</text></g><g class="node" transform="translate(1000,25.748502731323242)"><circle class="nodeCircle" r="4.5" style="fill: rgb(255, 255, 255);"></circle><text x="10" dy=".35em" class="nodeText" text-anchor="start" style="fill-opacity: 1;">Phonics</text></g><g class="node" transform="translate(500,25.748502731323242)"><circle class="nodeCircle" r="4.5" style="fill: rgb(255, 255, 255);"></circle><text x="10" dy=".35em" class="nodeText" text-anchor="start" style="fill-opacity: 1;">Early years curriculum from birth to 5 years</text></g><g class="node" transform="translate(1000,1506.2874755859375)"><circle class="nodeCircle" r="4.5" style="fill: rgb(255, 255, 255);"></circle><text x="10" dy=".35em" class="nodeText" text-anchor="start" style="fill-opacity: 1;">School inspections</text></g><g class="node" transform="translate(1500,450.59881591796875)"><circle class="nodeCircle" r="4.5" style="fill: rgb(255, 255, 255);"></circle><text x="10" dy=".35em" class="nodeText" text-anchor="start" style="fill-opacity: 1;">Home schooling</text></g><g class="node" transform="translate(1500,424.8503112792969)"><circle class="nodeCircle" r="4.5" style="fill: rgb(255, 255, 255);"></circle><text x="10" dy=".35em" class="nodeText" text-anchor="start" style="fill-opacity: 1;">Alternative provision and Pupil Referral Units</text></g><g class="node" transform="translate(1000,437.72454833984375)"><circle class="nodeCircle" r="4.5" style="fill: rgb(255, 255, 255);"></circle><text x="10" dy=".35em" class="nodeText" text-anchor="start" style="fill-opacity: 1;">Alternatives to school</text></g><g class="node" transform="translate(2000,849.7006225585938)"><circle class="nodeCircle" r="4.5" style="fill: rgb(255, 255, 255);"></circle><text x="10" dy=".35em" class="nodeText" text-anchor="start" style="fill-opacity: 1;">e-safety</text></g><g class="node" transform="translate(2000,875.4490966796875)"><circle class="nodeCircle" r="4.5" style="fill: rgb(255, 255, 255);"></circle><text x="10" dy=".35em" class="nodeText" text-anchor="start" style="fill-opacity: 1;">Prevent duty for schools</text></g><g class="node" transform="translate(1500,862.5748291015625)"><circle class="nodeCircle" r="4.5" style="fill: rgb(255, 255, 255);"></circle><text x="10" dy=".35em" class="nodeText" text-anchor="start" style="fill-opacity: 1;">Safeguarding pupils</text></g><g class="node" transform="translate(1000,862.5748291015625)"><circle class="nodeCircle" r="4.5" style="fill: rgb(255, 255, 255);"></circle><text x="10" dy=".35em" class="nodeText" text-anchor="start" style="fill-opacity: 1;">Health, safety and pupil wellbeing</text></g><g class="node" transform="translate(1500,1763.7724609375)"><circle class="nodeCircle" r="4.5" style="fill: rgb(255, 255, 255);"></circle><text x="10" dy=".35em" class="nodeText" text-anchor="start" style="fill-opacity: 1;">School uniform</text></g><g class="node" transform="translate(1500,1738.02392578125)"><circle class="nodeCircle" r="4.5" style="fill: rgb(255, 255, 255);"></circle><text x="10" dy=".35em" class="nodeText" text-anchor="start" style="fill-opacity: 1;">School transport</text></g><g class="node" transform="translate(1500,1712.275390625)"><circle class="nodeCircle" r="4.5" style="fill: rgb(255, 255, 255);"></circle><text x="10" dy=".35em" class="nodeText" text-anchor="start" style="fill-opacity: 1;">School meals</text></g><g class="node" transform="translate(1000,1738.02392578125)"><circle class="nodeCircle" r="4.5" style="fill: rgb(255, 255, 255);"></circle><text x="10" dy=".35em" class="nodeText" text-anchor="start" style="fill-opacity: 1;">School meals, transport and uniform</text></g><g class="node" transform="translate(1500,914.0718383789062)"><circle class="nodeCircle" r="4.5" style="fill: rgb(255, 255, 255);"></circle><text x="10" dy=".35em" class="nodeText" text-anchor="start" style="fill-opacity: 1;">Access to education for minority groups</text></g><g class="node" transform="translate(1000,914.0718383789062)"><circle class="nodeCircle" r="4.5" style="fill: rgb(255, 255, 255);"></circle><text x="10" dy=".35em" class="nodeText" text-anchor="start" style="fill-opacity: 1;">School admissions and pupil censuses</text></g><g class="node" transform="translate(1000,469.9101867675781)"><circle class="nodeCircle" r="4.5" style="fill: rgb(255, 255, 255);"></circle><text x="10" dy=".35em" class="nodeText" text-anchor="start" style="fill-opacity: 1;">Careers guidance in schools</text></g><g class="node" transform="translate(1500,991.3173828125)"><circle class="nodeCircle" r="4.5" style="fill: rgb(255, 255, 255);"></circle><text x="10" dy=".35em" class="nodeText" text-anchor="start" style="fill-opacity: 1;">School absence and truancy</text></g><g class="node" transform="translate(1500,965.56884765625)"><circle class="nodeCircle" r="4.5" style="fill: rgb(255, 255, 255);"></circle><text x="10" dy=".35em" class="nodeText" text-anchor="start" style="fill-opacity: 1;">Equality and diversity in schools</text></g><g class="node" transform="translate(1500,1017.0658569335938)"><circle class="nodeCircle" r="4.5" style="fill: rgb(255, 255, 255);"></circle><text x="10" dy=".35em" class="nodeText" text-anchor="start" style="fill-opacity: 1;">School bullying</text></g><g class="node" transform="translate(1500,1068.5628662109375)"><circle class="nodeCircle" r="4.5" style="fill: rgb(255, 255, 255);"></circle><text x="10" dy=".35em" class="nodeText" text-anchor="start" style="fill-opacity: 1;">School leaving age</text></g><g class="node" transform="translate(1500,1042.8143310546875)"><circle class="nodeCircle" r="4.5" style="fill: rgb(255, 255, 255);"></circle><text x="10" dy=".35em" class="nodeText" text-anchor="start" style="fill-opacity: 1;">School discipline and exclusions</text></g><g class="node" transform="translate(1000,1017.0658569335938)"><circle class="nodeCircle" r="4.5" style="fill: rgb(255, 255, 255);"></circle><text x="10" dy=".35em" class="nodeText" text-anchor="start" style="fill-opacity: 1;">School behaviour and attendance</text></g><g class="node" transform="translate(1000,1622.1556396484375)"><circle class="nodeCircle" r="4.5" style="fill: rgb(255, 255, 255);"></circle><text x="10" dy=".35em" class="nodeText" text-anchor="start" style="fill-opacity: 1;">School links with home, community and business</text></g><g class="node" transform="translate(1500,502.0957946777344)"><circle class="nodeCircle" r="4.5" style="fill: rgb(255, 255, 255);"></circle><text x="10" dy=".35em" class="nodeText" text-anchor="start" style="fill-opacity: 1;">School trips</text></g><g class="node" transform="translate(1000,502.0957946777344)"><circle class="nodeCircle" r="4.5" style="fill: rgb(255, 255, 255);"></circle><text x="10" dy=".35em" class="nodeText" text-anchor="start" style="fill-opacity: 1;">Extra-curricular activities for schools</text></g><g class="node" transform="translate(2000,1918.263427734375)"><circle class="nodeCircle" r="4.5" style="fill: rgb(255, 255, 255);"></circle><text x="10" dy=".35em" class="nodeText" text-anchor="start" style="fill-opacity: 1;">National Professional Qualification for Headship (NPQH)</text></g><g class="node" transform="translate(2000,1969.760498046875)"><circle class="nodeCircle" r="4.5" style="fill: rgb(255, 255, 255);"></circle><text x="10" dy=".35em" class="nodeText" text-anchor="start" style="fill-opacity: 1;">Subject Knowledge Enhancement (SKE)</text></g><g class="node" transform="translate(2000,1892.5150146484375)"><circle class="nodeCircle" r="4.5" style="fill: rgb(255, 255, 255);"></circle><text x="10" dy=".35em" class="nodeText" text-anchor="start" style="fill-opacity: 1;">Initial Teacher Training (ITT)</text></g><g class="node" transform="translate(2000,1944.011962890625)"><circle class="nodeCircle" r="4.5" style="fill: rgb(255, 255, 255);"></circle><text x="10" dy=".35em" class="nodeText" text-anchor="start" style="fill-opacity: 1;">Qualified Teacher Status (QTS)</text></g><g class="node" transform="translate(1500,1931.1376953125)"><circle class="nodeCircle" r="4.5" style="fill: rgb(255, 255, 255);"></circle><text x="10" dy=".35em" class="nodeText" text-anchor="start" style="fill-opacity: 1;">Teacher training and professional development</text></g><g class="node" transform="translate(2000,1841.0179443359375)"><circle class="nodeCircle" r="4.5" style="fill: rgb(255, 255, 255);"></circle><text x="10" dy=".35em" class="nodeText" text-anchor="start" style="fill-opacity: 1;">Teacher pensions</text></g><g class="node" transform="translate(1500,1841.0179443359375)"><circle class="nodeCircle" r="4.5" style="fill: rgb(255, 255, 255);"></circle><text x="10" dy=".35em" class="nodeText" text-anchor="start" style="fill-opacity: 1;">Teacher pay and conditions</text></g><g class="node" transform="translate(1500,1886.077880859375)"><circle class="nodeCircle" r="4.5" style="fill: rgb(255, 255, 255);"></circle><text x="10" dy=".35em" class="nodeText" text-anchor="start" style="fill-opacity: 1;">Teacher records</text></g><g class="node" transform="translate(1500,1956.88623046875)"><circle class="nodeCircle" r="4.5" style="fill: rgb(255, 255, 255);"></circle><text x="10" dy=".35em" class="nodeText" text-anchor="start" style="fill-opacity: 1;">Teaching standards, conduct and practice</text></g><g class="node" transform="translate(1500,1815.2694091796875)"><circle class="nodeCircle" r="4.5" style="fill: rgb(255, 255, 255);"></circle><text x="10" dy=".35em" class="nodeText" text-anchor="start" style="fill-opacity: 1;">Recruiting and managing school staff</text></g><g class="node" transform="translate(1000,1886.077880859375)"><circle class="nodeCircle" r="4.5" style="fill: rgb(255, 255, 255);"></circle><text x="10" dy=".35em" class="nodeText" text-anchor="start" style="fill-opacity: 1;">Teachers and school staff</text></g><g class="node" transform="translate(1500,682.3353271484375)"><circle class="nodeCircle" r="4.5" style="fill: rgb(255, 255, 255);"></circle><text x="10" dy=".35em" class="nodeText" text-anchor="start" style="fill-opacity: 1;">Recruiting and managing school staff</text></g><g class="node" transform="translate(2000,746.7066040039062)"><circle class="nodeCircle" r="4.5" style="fill: rgb(255, 255, 255);"></circle><text x="10" dy=".35em" class="nodeText" text-anchor="start" style="fill-opacity: 1;">Pupil participation in school governance</text></g><g class="node" transform="translate(2000,720.9580688476562)"><circle class="nodeCircle" r="4.5" style="fill: rgb(255, 255, 255);"></circle><text x="10" dy=".35em" class="nodeText" text-anchor="start" style="fill-opacity: 1;">Governance partnerships for multiple schools</text></g><g class="node" transform="translate(1500,733.8323364257812)"><circle class="nodeCircle" r="4.5" style="fill: rgb(255, 255, 255);"></circle><text x="10" dy=".35em" class="nodeText" text-anchor="start" style="fill-opacity: 1;">School governance</text></g><g class="node" transform="translate(1500,759.580810546875)"><circle class="nodeCircle" r="4.5" style="fill: rgb(255, 255, 255);"></circle><text x="10" dy=".35em" class="nodeText" text-anchor="start" style="fill-opacity: 1;">School insurance and risk management</text></g><g class="node" transform="translate(1500,811.0778198242188)"><circle class="nodeCircle" r="4.5" style="fill: rgb(255, 255, 255);"></circle><text x="10" dy=".35em" class="nodeText" text-anchor="start" style="fill-opacity: 1;">Whistleblowing in schools</text></g><g class="node" transform="translate(1500,605.08984375)"><circle class="nodeCircle" r="4.5" style="fill: rgb(255, 255, 255);"></circle><text x="10" dy=".35em" class="nodeText" text-anchor="start" style="fill-opacity: 1;">Dealing with complaints about a school</text></g><g class="node" transform="translate(1500,553.5928344726562)"><circle class="nodeCircle" r="4.5" style="fill: rgb(255, 255, 255);"></circle><text x="10" dy=".35em" class="nodeText" text-anchor="start" style="fill-opacity: 1;">Changing the status of a school</text></g><g class="node" transform="translate(1500,785.329345703125)"><circle class="nodeCircle" r="4.5" style="fill: rgb(255, 255, 255);"></circle><text x="10" dy=".35em" class="nodeText" text-anchor="start" style="fill-opacity: 1;">Setting up or shutting down a school</text></g><g class="node" transform="translate(1500,708.0838623046875)"><circle class="nodeCircle" r="4.5" style="fill: rgb(255, 255, 255);"></circle><text x="10" dy=".35em" class="nodeText" text-anchor="start" style="fill-opacity: 1;">School buildings and premises</text></g><g class="node" transform="translate(1500,656.5868530273438)"><circle class="nodeCircle" r="4.5" style="fill: rgb(255, 255, 255);"></circle><text x="10" dy=".35em" class="nodeText" text-anchor="start" style="fill-opacity: 1;">Procurement for schools</text></g><g class="node" transform="translate(1500,579.34130859375)"><circle class="nodeCircle" r="4.5" style="fill: rgb(255, 255, 255);"></circle><text x="10" dy=".35em" class="nodeText" text-anchor="start" style="fill-opacity: 1;">Copyright for schools</text></g><g class="node" transform="translate(1500,630.8383178710938)"><circle class="nodeCircle" r="4.5" style="fill: rgb(255, 255, 255);"></circle><text x="10" dy=".35em" class="nodeText" text-anchor="start" style="fill-opacity: 1;">Managing school data</text></g><g class="node" transform="translate(1000,682.3353271484375)"><circle class="nodeCircle" r="4.5" style="fill: rgb(255, 255, 255);"></circle><text x="10" dy=".35em" class="nodeText" text-anchor="start" style="fill-opacity: 1;">Governing and managing schools</text></g><g class="node" transform="translate(1500,1145.808349609375)"><circle class="nodeCircle" r="4.5" style="fill: rgb(255, 255, 255);"></circle><text x="10" dy=".35em" class="nodeText" text-anchor="start" style="fill-opacity: 1;">Key stage 5, AS and A Levels</text></g><g class="node" transform="translate(1500,1120.0599365234375)"><circle class="nodeCircle" r="4.5" style="fill: rgb(255, 255, 255);"></circle><text x="10" dy=".35em" class="nodeText" text-anchor="start" style="fill-opacity: 1;">Administration of exams and tests in schools</text></g><g class="node" transform="translate(1500,1235.9281005859375)"><circle class="nodeCircle" r="4.5" style="fill: rgb(255, 255, 255);"></circle><text x="10" dy=".35em" class="nodeText" text-anchor="start" style="fill-opacity: 1;">Physical education</text></g><g class="node" transform="translate(2000,1171.556884765625)"><circle class="nodeCircle" r="4.5" style="fill: rgb(255, 255, 255);"></circle><text x="10" dy=".35em" class="nodeText" text-anchor="start" style="fill-opacity: 1;">Sex and relationship education</text></g><g class="node" transform="translate(1500,1171.556884765625)"><circle class="nodeCircle" r="4.5" style="fill: rgb(255, 255, 255);"></circle><text x="10" dy=".35em" class="nodeText" text-anchor="start" style="fill-opacity: 1;">Personal, social, health and economic education</text></g><g class="node" transform="translate(2000,1660.7784423828125)"><circle class="nodeCircle" r="4.5" style="fill: rgb(255, 255, 255);"></circle><text x="10" dy=".35em" class="nodeText" text-anchor="start" style="fill-opacity: 1;">Promoting British values and citizenship in schools</text></g><g class="node" transform="translate(2000,1686.5269775390625)"><circle class="nodeCircle" r="4.5" style="fill: rgb(255, 255, 255);"></circle><text x="10" dy=".35em" class="nodeText" text-anchor="start" style="fill-opacity: 1;">Religious education</text></g><g class="node" transform="translate(2000,1635.0299072265625)"><circle class="nodeCircle" r="4.5" style="fill: rgb(255, 255, 255);"></circle><text x="10" dy=".35em" class="nodeText" text-anchor="start" style="fill-opacity: 1;">Cultural education</text></g><g class="node" transform="translate(1500,1660.7784423828125)"><circle class="nodeCircle" r="4.5" style="fill: rgb(255, 255, 255);"></circle><text x="10" dy=".35em" class="nodeText" text-anchor="start" style="fill-opacity: 1;">Spiritual, moral, social and cultural development</text></g><g class="node" transform="translate(1500,1583.532958984375)"><circle class="nodeCircle" r="4.5" style="fill: rgb(255, 255, 255);"></circle><text x="10" dy=".35em" class="nodeText" text-anchor="start" style="fill-opacity: 1;">Secondary curriculum, key stage 3 and key stage 4</text></g><g class="node" transform="translate(2000,1583.532958984375)"><circle class="nodeCircle" r="4.5" style="fill: rgb(255, 255, 255);"></circle><text x="10" dy=".35em" class="nodeText" text-anchor="start" style="fill-opacity: 1;">Tests</text></g><g class="node" transform="translate(2000,1557.784423828125)"><circle class="nodeCircle" r="4.5" style="fill: rgb(255, 255, 255);"></circle><text x="10" dy=".35em" class="nodeText" text-anchor="start" style="fill-opacity: 1;">Science</text></g><g class="node" transform="translate(2000,1532.035888671875)"><circle class="nodeCircle" r="4.5" style="fill: rgb(255, 255, 255);"></circle><text x="10" dy=".35em" class="nodeText" text-anchor="start" style="fill-opacity: 1;">Programmes of study</text></g><g class="node" transform="translate(2000,1480.5389404296875)"><circle class="nodeCircle" r="4.5" style="fill: rgb(255, 255, 255);"></circle><text x="10" dy=".35em" class="nodeText" text-anchor="start" style="fill-opacity: 1;">Maths</text></g><g class="node" transform="translate(2000,1454.7904052734375)"><circle class="nodeCircle" r="4.5" style="fill: rgb(255, 255, 255);"></circle><text x="10" dy=".35em" class="nodeText" text-anchor="start" style="fill-opacity: 1;">English</text></g><g class="node" transform="translate(2000,1429.0418701171875)"><circle class="nodeCircle" r="4.5" style="fill: rgb(255, 255, 255);"></circle><text x="10" dy=".35em" class="nodeText" text-anchor="start" style="fill-opacity: 1;">Assessments</text></g><g class="node" transform="translate(2000,1506.2874755859375)"><circle class="nodeCircle" r="4.5" style="fill: rgb(255, 255, 255);"></circle><text x="10" dy=".35em" class="nodeText" text-anchor="start" style="fill-opacity: 1;">Phonics</text></g><g class="node" transform="translate(1500,1506.2874755859375)"><circle class="nodeCircle" r="4.5" style="fill: rgb(255, 255, 255);"></circle><text x="10" dy=".35em" class="nodeText" text-anchor="start" style="fill-opacity: 1;">Primary curriculum, key stage 2</text></g><g class="node" transform="translate(2000,1377.544921875)"><circle class="nodeCircle" r="4.5" style="fill: rgb(255, 255, 255);"></circle><text x="10" dy=".35em" class="nodeText" text-anchor="start" style="fill-opacity: 1;">Tests</text></g><g class="node" transform="translate(2000,1351.79638671875)"><circle class="nodeCircle" r="4.5" style="fill: rgb(255, 255, 255);"></circle><text x="10" dy=".35em" class="nodeText" text-anchor="start" style="fill-opacity: 1;">Science</text></g><g class="node" transform="translate(2000,1326.0478515625)"><circle class="nodeCircle" r="4.5" style="fill: rgb(255, 255, 255);"></circle><text x="10" dy=".35em" class="nodeText" text-anchor="start" style="fill-opacity: 1;">Programmes of study</text></g><g class="node" transform="translate(2000,1274.5509033203125)"><circle class="nodeCircle" r="4.5" style="fill: rgb(255, 255, 255);"></circle><text x="10" dy=".35em" class="nodeText" text-anchor="start" style="fill-opacity: 1;">Maths</text></g><g class="node" transform="translate(2000,1248.8023681640625)"><circle class="nodeCircle" r="4.5" style="fill: rgb(255, 255, 255);"></circle><text x="10" dy=".35em" class="nodeText" text-anchor="start" style="fill-opacity: 1;">English</text></g><g class="node" transform="translate(2000,1223.0538330078125)"><circle class="nodeCircle" r="4.5" style="fill: rgb(255, 255, 255);"></circle><text x="10" dy=".35em" class="nodeText" text-anchor="start" style="fill-opacity: 1;">Assessments</text></g><g class="node" transform="translate(2000,1300.2994384765625)"><circle class="nodeCircle" r="4.5" style="fill: rgb(255, 255, 255);"></circle><text x="10" dy=".35em" class="nodeText" text-anchor="start" style="fill-opacity: 1;">Phonics</text></g><g class="node" transform="translate(1500,1300.2994384765625)"><circle class="nodeCircle" r="4.5" style="fill: rgb(255, 255, 255);"></circle><text x="10" dy=".35em" class="nodeText" text-anchor="start" style="fill-opacity: 1;">Primary curriculum, key stage 1</text></g><g class="node" transform="translate(1000,1390.419189453125)"><circle class="nodeCircle" r="4.5" style="fill: rgb(255, 255, 255);"></circle><text x="10" dy=".35em" class="nodeText" text-anchor="start" style="fill-opacity: 1;">School curriculum, assessments and performance</text></g><g class="node" transform="translate(500,1161.9012451171875)"><circle class="nodeCircle" r="4.5" style="fill: rgb(255, 255, 255);"></circle><text x="10" dy=".35em" class="nodeText" text-anchor="start" style="fill-opacity: 1;">School education from 5 to 18 years</text></g><g class="node" transform="translate(0,1068.5628662109375)"><circle class="nodeCircle" r="4.5" style="fill: rgb(255, 255, 255);"></circle><text x="10" dy=".35em" class="nodeText" text-anchor="start" style="fill-opacity: 1;">Education, training and skills</text></g></g></svg>
